<svg xmlns="http://www.w3.org/2000/svg" xmlns:xlink="http://www.w3.org/1999/xlink" viewBox="0 0 500 500"><defs><clipPath id="freepik--clip-path--inject-63"><path d="M297.68,348.92h-17c-8.85,0-16,12.83-16,28.66s7.17,28.65,16,28.65h17c8.85,0,16-12.83,16-28.65S306.53,348.92,297.68,348.92Z" style="fill:#263238"></path></clipPath></defs><g id="freepik--background-simple--inject-63"><path d="M245.73,154.51c39.54-19.24,70.9-62.29,121.56-54.07,38,6.18,58.34,40.67,64.47,78.28,16.12,98.74-106.17,166.89-188.62,174.37C157.73,360.89,38,316.36,51.25,215.54c5.46-41.54,37.83-61.79,80.84-66.44C168.57,145.15,214.71,169.61,245.73,154.51Z" style="fill:#407BFF"></path><path d="M245.73,154.51c39.54-19.24,70.9-62.29,121.56-54.07,38,6.18,58.34,40.67,64.47,78.28,16.12,98.74-106.17,166.89-188.62,174.37C157.73,360.89,38,316.36,51.25,215.54c5.46-41.54,37.83-61.79,80.84-66.44C168.57,145.15,214.71,169.61,245.73,154.51Z" style="fill:#fff;opacity:0.9;isolation:isolate"></path></g><g id="freepik--Shadow--inject-63"><g id="freepik--Shadow--inject-62--inject-63"><ellipse id="freepik--path--inject-62--inject-63" cx="250" cy="411.67" rx="193.89" ry="15.89" style="fill:#f5f5f5"></ellipse></g></g><g id="freepik--Truck--inject-63"><path d="M297.68,348.92h-17c-8.85,0-16,12.83-16,28.66s7.17,28.65,16,28.65h17c8.85,0,16-12.83,16-28.65S306.53,348.92,297.68,348.92Z" style="fill:#263238"></path><g style="clip-path:url(#freepik--clip-path--inject-63)"><path d="M317.68,348.92h-17c-8.85,0-16,12.83-16,28.66s7.17,28.65,16,28.65h17c8.85,0,16-12.83,16-28.65S326.53,348.92,317.68,348.92Z" style="fill:#fff;opacity:0.05"></path></g><polygon points="435.39 355.06 137.7 354.85 137.7 164.7 435.39 164.7 435.39 355.06" style="fill:#407BFF"></polygon><rect x="233.63" y="164.7" width="201.76" height="190.35" style="fill:#263238;opacity:0.30000000000000004;isolation:isolate"></rect><rect x="137.7" y="164.7" width="95.93" height="194.11" style="fill:#fff;opacity:0.2;isolation:isolate"></rect><line x1="138.42" y1="173.54" x2="435.39" y2="173.54" style="fill:none;stroke:#fff;stroke-linecap:round;stroke-linejoin:round;stroke-width:2px;opacity:0.1"></line><line x1="138.42" y1="181.77" x2="435.39" y2="181.77" style="fill:none;stroke:#fff;stroke-linecap:round;stroke-linejoin:round;stroke-width:2px;opacity:0.1"></line><line x1="138.42" y1="189.99" x2="435.39" y2="189.99" style="fill:none;stroke:#fff;stroke-linecap:round;stroke-linejoin:round;stroke-width:2px;opacity:0.1"></line><line x1="138.42" y1="198.21" x2="435.39" y2="198.21" style="fill:none;stroke:#fff;stroke-linecap:round;stroke-linejoin:round;stroke-width:2px;opacity:0.1"></line><line x1="138.42" y1="206.44" x2="435.39" y2="206.44" style="fill:none;stroke:#fff;stroke-linecap:round;stroke-linejoin:round;stroke-width:2px;opacity:0.1"></line><line x1="138.42" y1="214.66" x2="435.39" y2="214.66" style="fill:none;stroke:#fff;stroke-linecap:round;stroke-linejoin:round;stroke-width:2px;opacity:0.1"></line><line x1="138.42" y1="222.88" x2="435.39" y2="222.88" style="fill:none;stroke:#fff;stroke-linecap:round;stroke-linejoin:round;stroke-width:2px;opacity:0.1"></line><line x1="138.42" y1="231.1" x2="435.39" y2="231.1" style="fill:none;stroke:#fff;stroke-linecap:round;stroke-linejoin:round;stroke-width:2px;opacity:0.1"></line><line x1="138.42" y1="239.33" x2="435.39" y2="239.33" style="fill:none;stroke:#fff;stroke-linecap:round;stroke-linejoin:round;stroke-width:2px;opacity:0.1"></line><line x1="138.42" y1="247.55" x2="435.39" y2="247.55" style="fill:none;stroke:#fff;stroke-linecap:round;stroke-linejoin:round;stroke-width:2px;opacity:0.1"></line><line x1="138.42" y1="255.77" x2="435.39" y2="255.77" style="fill:none;stroke:#fff;stroke-linecap:round;stroke-linejoin:round;stroke-width:2px;opacity:0.1"></line><line x1="138.42" y1="264" x2="435.39" y2="264" style="fill:none;stroke:#fff;stroke-linecap:round;stroke-linejoin:round;stroke-width:2px;opacity:0.1"></line><line x1="138.42" y1="272.22" x2="435.39" y2="272.22" style="fill:none;stroke:#fff;stroke-linecap:round;stroke-linejoin:round;stroke-width:2px;opacity:0.1"></line><line x1="138.42" y1="280.44" x2="435.39" y2="280.44" style="fill:none;stroke:#fff;stroke-linecap:round;stroke-linejoin:round;stroke-width:2px;opacity:0.1"></line><line x1="138.42" y1="288.66" x2="435.39" y2="288.66" style="fill:none;stroke:#fff;stroke-linecap:round;stroke-linejoin:round;stroke-width:2px;opacity:0.1"></line><line x1="138.42" y1="296.89" x2="435.39" y2="296.89" style="fill:none;stroke:#fff;stroke-linecap:round;stroke-linejoin:round;stroke-width:2px;opacity:0.1"></line><line x1="138.42" y1="305.11" x2="435.39" y2="305.11" style="fill:none;stroke:#fff;stroke-linecap:round;stroke-linejoin:round;stroke-width:2px;opacity:0.1"></line><line x1="138.42" y1="313.33" x2="435.39" y2="313.33" style="fill:none;stroke:#fff;stroke-linecap:round;stroke-linejoin:round;stroke-width:2px;opacity:0.1"></line><line x1="138.42" y1="321.56" x2="435.39" y2="321.56" style="fill:none;stroke:#fff;stroke-linecap:round;stroke-linejoin:round;stroke-width:2px;opacity:0.1"></line><line x1="138.42" y1="329.78" x2="435.39" y2="329.78" style="fill:none;stroke:#fff;stroke-linecap:round;stroke-linejoin:round;stroke-width:2px;opacity:0.1"></line><line x1="138.42" y1="338" x2="435.39" y2="338" style="fill:none;stroke:#fff;stroke-linecap:round;stroke-linejoin:round;stroke-width:2px;opacity:0.1"></line><line x1="138.42" y1="346.23" x2="435.39" y2="346.23" style="fill:none;stroke:#fff;stroke-linecap:round;stroke-linejoin:round;stroke-width:2px;opacity:0.1"></line><path d="M83.07,352.66H67.34c-8.2,0-14.84,11.88-14.84,26.54s6.64,26.53,14.84,26.53H83.07c8.2,0,14.84-11.88,14.84-26.53S91.27,352.66,83.07,352.66Z" style="fill:#263238"></path><path d="M103.08,352.66H87.34c-8.2,0-14.84,11.88-14.84,26.54s6.64,26.53,14.84,26.53h15.74c8.19,0,14.84-11.88,14.84-26.53S111.27,352.66,103.08,352.66Z" style="fill:#fff;opacity:0.05"></path><path d="M74.32,300.83H66.88c-1.46.05-2.66-1.51-2.69-3.49a3.22,3.22,0,0,1,0-.62l2-22.47c.25-2.31,1.68-4,3.4-4.11H77.1c1.45,0,2.65,1.53,2.68,3.51q0,.3,0,.6l-2,22.47C77.48,299,76,300.77,74.32,300.83Z" style="fill:#263238"></path><path d="M81.76,226.61,67.41,304,223.64,365.2l-1.09-152.52-34.36-1H94.07C88.41,211.63,83.42,217.71,81.76,226.61Z" style="fill:#407BFF"></path><path d="M198,239.06c-5.83-.26-11.06,4.52-12.77,11.65l-11.82,49.52H150.66l-1.24,65.33h74.83" style="fill:#407BFF"></path><path d="M84,296.07c-2.29,0-4.14-2.94-4.14-6.56a9.74,9.74,0,0,1,.18-1.88l8.59-45.44c.72-3.77,2.92-6.35,5.41-6.34h82.18c.89,0,1.62,1.14,1.62,2.56a3.74,3.74,0,0,1-.07.75c-1.8,9.36-7.65,40.37-9.89,52.23-.52,2.78-2.14,4.68-4,4.68Z" style="fill:#263238"></path><path d="M159.62,316.21a17.21,17.21,0,0,1-.17,2.38l-.43,2.93-.25,1.73-1.84,12.64-3,20.55-.83,5.71H36.81l0-5.71.08-20.55L37,323.6v-5c-1-6.6,2.19-13,7.05-14.33a6.52,6.52,0,0,1,1.75-.23H150.66C155.61,304,159.62,309.48,159.62,316.21Z" style="fill:#407BFF"></path><path d="M218.73,242v48.71c0,2.95-1.51,5.35-3.38,5.36H186.93c-1.87,0-3.38-2.4-3.38-5.36a8.57,8.57,0,0,1,.12-1.44l8.76-49.8c.42-2.39,1.82-4,3.38-3.91l19.66,1.08C217.29,236.75,218.73,239.12,218.73,242Z" style="fill:#263238"></path><polygon points="131.94 235.85 116.24 235.85 98.21 296.07 113.92 296.07 131.94 235.85" style="fill:#fff;opacity:0.1;isolation:isolate"></polygon><polygon points="144.16 235.85 136.66 235.85 118.64 296.07 126.13 296.07 144.16 235.85" style="fill:#fff;opacity:0.1;isolation:isolate"></polygon><polygon points="189.75 335.89 189.75 356.44 36.83 356.44 36.91 335.89 189.75 335.89"></polygon><polygon points="168.45 335.89 154.31 335.89 128.88 350.83 128.88 356.44 189.75 356.44 189.75 335.89 168.45 335.89" style="fill:#fff"></polygon><polygon points="63.19 350.83 63.19 356.44 36.83 356.44 36.91 335.89 37.77 335.89 63.19 350.83" style="fill:#fff"></polygon><path d="M223.71,365.56l-1.16-152.88-21-1c-5.24-.26-11.29,5.83-12.82,12.89L173.51,304h-5.93c-6.66,0-11.22,4.85-11.21,10l.09,51.58h67.25" style="fill:#263238;opacity:0.30000000000000004;isolation:isolate"></path><path d="M159.23,322.24a1.35,1.35,0,0,1-.46,1,1.31,1.31,0,0,1-.9.35H37v-2.72h120.9a1.36,1.36,0,0,1,1.15.64A1.38,1.38,0,0,1,159.23,322.24Z" style="fill:#fff"></path><polygon points="58.32 320.88 58.32 323.6 36.96 323.6 36.97 320.88 58.32 320.88" style="fill:#263238"></polygon><path d="M159.23,322.24a1.35,1.35,0,0,1-.46,1,1.31,1.31,0,0,1-.9.35H128.55v-2.72h29.32a1.36,1.36,0,0,1,1.15.64A1.38,1.38,0,0,1,159.23,322.24Z" style="fill:#263238"></path><path d="M440.73,360v.54a5,5,0,0,1-5,5H38.53a5,5,0,0,1-5-5V360a5,5,0,0,1,5-5h397.2A5,5,0,0,1,440.73,360Z" style="fill:#263238"></path><rect x="67.41" y="359.11" width="59.2" height="2.89"></rect><path d="M51.66,360.55A1.65,1.65,0,1,1,50,358.9,1.65,1.65,0,0,1,51.66,360.55Z" style="fill:#fff"></path><path d="M140.75,360.55a1.65,1.65,0,1,1-1.65-1.65A1.65,1.65,0,0,1,140.75,360.55Z" style="fill:#fff"></path><path d="M188.59,376.93c0-15.91,7.21-28.81,16.11-28.81H187.61c-8.89,0-16.1,12.9-16.1,28.81s7.21,28.8,16.1,28.8H204.7C195.8,405.76,188.59,392.87,188.59,376.93Z"></path><path d="M188.59,376.93c0-15.91,7.21-28.81,16.11-28.81H187.61c-8.89,0-16.1,12.9-16.1,28.81s7.21,28.8,16.1,28.8H204.7C195.8,405.76,188.59,392.87,188.59,376.93Z" style="fill:#263238;opacity:0.7000000000000001;isolation:isolate"></path><ellipse cx="204.7" cy="376.96" rx="16.11" ry="28.81" style="fill:#263238"></ellipse><ellipse cx="205.99" cy="376.96" rx="11.42" ry="22.46" style="fill:#fff"></ellipse><ellipse cx="204.95" cy="376.96" rx="10.93" ry="19.44" style="fill:#263238"></ellipse><ellipse cx="202.55" cy="376.96" rx="7.98" ry="14.19"></ellipse><path d="M440.73,360v.54a5,5,0,0,1-5,5H233.63V355h202.1A5,5,0,0,1,440.73,360Z" style="opacity:0.5"></path><path d="M377.92,376.93c0-15.91,7.21-28.81,16.1-28.81H376.94c-8.9,0-16.11,12.9-16.11,28.81s7.21,28.8,16.11,28.8H394C385.13,405.76,377.92,392.87,377.92,376.93Z"></path><path d="M377.92,376.93c0-15.91,7.21-28.81,16.1-28.81H376.94c-8.9,0-16.11,12.9-16.11,28.81s7.21,28.8,16.11,28.8H394C385.13,405.76,377.92,392.87,377.92,376.93Z" style="fill:#263238;opacity:0.7000000000000001;isolation:isolate"></path><ellipse cx="394.02" cy="376.96" rx="16.11" ry="28.81" style="fill:#263238"></ellipse><ellipse cx="395.32" cy="376.96" rx="11.42" ry="22.46" style="fill:#fff"></ellipse><ellipse cx="394.27" cy="376.96" rx="10.93" ry="19.44" style="fill:#263238"></ellipse><ellipse cx="391.87" cy="376.96" rx="7.98" ry="14.19"></ellipse></g></svg>