<svg xmlns="http://www.w3.org/2000/svg" viewBox="0 0 750 500"><g id="freepik--background-simple--inject-8"><path d="M608.27,52.65C531,42.59,487,85.47,383.12,90.13,279.88,82,240.52,37.78,162.28,45.28,78.1,53.34,12.9,163,31.46,272.77S165,443.83,223.77,443.46c47-.31,88.48-19.43,142-24,53,6.33,92.42,26.79,139.28,28.65C563.74,450.43,685,393,715,284.07S691.46,63.49,608.27,52.65Z" style="fill:#92E3A9"></path><path d="M608.27,52.65C531,42.59,487,85.47,383.12,90.13,279.88,82,240.52,37.78,162.28,45.28,78.1,53.34,12.9,163,31.46,272.77S165,443.83,223.77,443.46c47-.31,88.48-19.43,142-24,53,6.33,92.42,26.79,139.28,28.65C563.74,450.43,685,393,715,284.07S691.46,63.49,608.27,52.65Z" style="fill:#fff;opacity:0.7000000000000001"></path></g><g id="freepik--Floor--inject-8"><line x1="84.24" y1="452.09" x2="722.07" y2="452.09" style="fill:none;stroke:#263238;stroke-linecap:round;stroke-linejoin:round"></line><line x1="37.09" y1="452.09" x2="74.26" y2="452.09" style="fill:none;stroke:#263238;stroke-linecap:round;stroke-linejoin:round"></line></g><g id="freepik--Plant--inject-8"><path d="M178.84,333.52s-13.52-.2-23.94-37.75-14.82-44.54-21.44-36.46a23.43,23.43,0,0,0-4.93,17.56s-6.68-14.92-14.07-7.13-1.73,16.13-1.73,16.13-20.68-17.61-26.64-6.63-2.21,15.07,5.1,21.39S120,317.8,120,317.8s-22.71-.71-38-4.75-30-7-32,2.81,19.32,18.86,19.32,18.86S50.68,337.32,55,346.91s16.27,10.63,16.27,10.63S56,365,68,373.08s29.28-.32,29.28-.32,4.22,5.14,10.91,1.51,21.65-17.37,21.65-17.37-13.93,20.31-23.75,29.82,5.39,20.62,10,17.94,9.23-8,9.23-8,.4,15.17,8.15,11.06,10.29-8.45,10.29-8.45,3.05,8.24,7.72,2.95,7.61-13,9-21.31S165,359.7,165,359.7s4.78-7.89,13.49-9.87l8.71-2,3.42-6.64Z" style="fill:#b2b2b2;stroke:#263238;stroke-linecap:round;stroke-linejoin:round"></path><path d="M93.36,349.93A105.2,105.2,0,0,1,78.93,349" style="fill:none;stroke:#263238;stroke-linecap:round;stroke-linejoin:round"></path><path d="M176.12,337.44s-31.78-2.4-49.12,6c-8.54,4.13-18.48,5.81-27.28,6.31" style="fill:none;stroke:#263238;stroke-linecap:round;stroke-linejoin:round"></path><path d="M138.16,319.31c7.36,8.15,12.19,12.53,19,14.45" style="fill:none;stroke:#263238;stroke-linecap:round;stroke-linejoin:round"></path><path d="M107.36,295.31s12.16,2.87,23.87,16.17l2.89,3.28" style="fill:none;stroke:#263238;stroke-linecap:round;stroke-linejoin:round"></path><path d="M150.5,358.91a35.41,35.41,0,0,0-1.58,3.51c-5,13.11-9.12,23.91-16.4,29.09" style="fill:none;stroke:#263238;stroke-linecap:round;stroke-linejoin:round"></path><path d="M165.65,344.05a34.56,34.56,0,0,0-10.45,8.09" style="fill:none;stroke:#263238;stroke-linecap:round;stroke-linejoin:round"></path><path d="M291.34,354.38s-11.71-6.76-2.53-44.63,8.73-46.12-1-42.29A23.49,23.49,0,0,0,275,280.4s1.43-16.28-8.81-13.08-9.37,13.24-9.37,13.24-9.49-25.44-20-18.75-9.26,12.08-6,21.16,16.8,29,16.8,29-19.49-11.67-30.84-22.63S194,268.61,187.43,276.24s7.69,25.88,7.69,25.88-17.57-6.82-18.49,3.65,9,17.2,9,17.2-16.92-.9-10.43,12,25.74,14,25.74,14,1.18,6.55,8.79,6.63,27.37-4.63,27.37-4.63-22.06,11-35.26,14.49-5.33,20.63,0,20.51,11.94-2.47,11.94-2.47-7,13.45,1.74,13.63,13.1-2.37,13.1-2.37-1.35,8.68,5.31,6.33,13-7.65,18.24-14.22,14.33-16.33,14.33-16.33,8-4.57,16.59-2.06l8.57,2.51,6.22-4.14Z" style="fill:#b2b2b2;stroke:#263238;stroke-linecap:round;stroke-linejoin:round"></path><path d="M208.68,327.09a103.87,103.87,0,0,1-12.13-7.85" style="fill:none;stroke:#263238;stroke-linecap:round;stroke-linejoin:round"></path><path d="M287.06,356.48s-26.6-17.57-45.84-18.67c-9.47-.54-19-3.93-26.9-7.77" style="fill:none;stroke:#263238;stroke-linecap:round;stroke-linejoin:round"></path><path d="M262.73,322.16c2.45,10.7,4.55,16.88,9.59,21.89" style="fill:none;stroke:#263238;stroke-linecap:round;stroke-linejoin:round"></path><path d="M247.51,286.2s9.22,8.43,13,25.75c.33,1.49.63,2.91.93,4.26" style="fill:none;stroke:#263238;stroke-linecap:round;stroke-linejoin:round"></path><path d="M254.23,362.76a32,32,0,0,0-3.09,2.29c-10.76,9-19.61,16.45-28.49,17.43" style="fill:none;stroke:#263238;stroke-linecap:round;stroke-linejoin:round"></path><path d="M274.69,357.15a34.76,34.76,0,0,0-13.06,2" style="fill:none;stroke:#263238;stroke-linecap:round;stroke-linejoin:round"></path><path d="M265.39,365.25s-12.25,5.46-38-21.59-32.7-31.05-35.15-21.54a20.65,20.65,0,0,0,3.2,16.74s-12.5-9.69-15.76-.1S185.17,353,185.17,353s-26.26-6.1-26.85,5.57,4.56,13.51,13.89,15.75,33.38,2.35,33.38,2.35-20.74,8.87-36.22,11.84-30.07,6.64-27.58,15.7,25.59,7.71,25.59,7.71-15.67,10-7.64,16.19S179,430.17,179,430.17s-10.45,12.58,3.81,14.36S209,432.06,209,432.06a9,9,0,0,0,10.48-3.29c4.44-5.83,11.93-23.55,11.93-23.55S227.73,428,223,440.06s13.82,15,16.76,10.84,4.83-10.51,4.83-10.51,7,12.52,12.15,5.85,5.59-11.35,5.59-11.35,6.32,5.61,8.22-.75,1.2-14.05-1.15-21.57-5.13-19.66-5.13-19.66.87-8.59,7.85-13.88l7-5.29.19-7Z" style="fill:#b2b2b2;stroke:#263238;stroke-linecap:round;stroke-linejoin:round"></path><path d="M195.6,414.6a111.49,111.49,0,0,1-13.4,5.22" style="fill:none;stroke:#263238;stroke-linecap:round;stroke-linejoin:round"></path><path d="M264.65,369.66s-29.65,11.24-41.6,25.5c-5.88,7-14.1,12.56-21.8,16.64" style="fill:none;stroke:#263238;stroke-linecap:round;stroke-linejoin:round"></path><path d="M222.6,370.32c10.16,3.75,16.42,5.39,23.42,4.15" style="fill:none;stroke:#263238;stroke-linecap:round;stroke-linejoin:round"></path><path d="M184.45,363.1s12.19-2.67,28.52,3.57l4,1.53" style="fill:none;stroke:#263238;stroke-linecap:round;stroke-linejoin:round"></path><path d="M250.93,398.28a29.07,29.07,0,0,0,.1,3.59c1.2,13.05,2.19,23.8-2.11,31.16" style="fill:none;stroke:#263238;stroke-linecap:round;stroke-linejoin:round"></path><path d="M258.1,379.55a32.12,32.12,0,0,0-5.89,11.11" style="fill:none;stroke:#263238;stroke-linecap:round;stroke-linejoin:round"></path><path d="M368.76,358s-12.22,5.78-38.12-23.35-32.93-33.45-35.31-23.28a23.45,23.45,0,0,0,3.31,17.93s-12.57-10.45-15.77-.2,5.54,15.24,5.54,15.24-26.32-6.7-26.83,5.78,4.65,14.5,14,17S309,369.8,309,369.8s-20.7,9.36-36.17,12.45-30,6.91-27.49,16.62S271,407.29,271,407.29s-15.61,10.56-7.53,17.28,19.29,2.37,19.29,2.37-10.38,13.39,3.9,15.39,26.15-13.18,26.15-13.18,6.06,2.76,10.46-3.45,11.79-25.13,11.79-25.13-3.57,24.37-8.19,37.23,13.92,16.14,16.84,11.72,4.77-11.22,4.77-11.22,7,13.45,12.19,6.35,5.52-12.12,5.52-12.12,6.36,6.05,8.22-.76,1.11-15-1.3-23.09-5.25-21.08-5.25-21.08.81-9.19,7.76-14.81l5-4a5.47,5.47,0,0,0,2-4.15h0a5.47,5.47,0,0,0-4.8-5.53Z" style="fill:#b2b2b2;stroke:#263238;stroke-linecap:round;stroke-linejoin:round"></path><path d="M299.25,410.37a103.65,103.65,0,0,1-13.38,5.5" style="fill:none;stroke:#263238;stroke-linecap:round;stroke-linejoin:round"></path><path d="M368.05,362.71s-29.59,11.84-41.46,27c-5.84,7.47-14,13.35-21.71,17.68" style="fill:none;stroke:#263238;stroke-linecap:round;stroke-linejoin:round"></path><path d="M326,363.15c10.19,4.07,16.46,5.88,23.46,4.59" style="fill:none;stroke:#263238;stroke-linecap:round;stroke-linejoin:round"></path><path d="M287.75,355.17s12.18-2.78,28.56,4l4,1.67" style="fill:none;stroke:#263238;stroke-linecap:round;stroke-linejoin:round"></path><path d="M354.5,393.27a33.45,33.45,0,0,0,.13,3.84c1.28,14,2.34,25.49-1.91,33.34" style="fill:none;stroke:#263238;stroke-linecap:round;stroke-linejoin:round"></path><path d="M361.55,373.25a34.75,34.75,0,0,0-5.81,11.86" style="fill:none;stroke:#263238;stroke-linecap:round;stroke-linejoin:round"></path></g><g id="freepik--Fish--inject-8"><path d="M547,422.07,82.75,254.14a21.9,21.9,0,0,1-13.15-28L130.86,56.72a21.9,21.9,0,0,1,28-13.14L623.16,211.5a21.91,21.91,0,0,1,13.14,28.05L575,408.92A21.9,21.9,0,0,1,547,422.07Z" style="fill:#92E3A9;stroke:#263238;stroke-linecap:round;stroke-linejoin:round"></path><path d="M141.42,185.39a17.82,17.82,0,0,0,3.12,11.67c4,5.56,14.27,12.5,28.21,22.13s62.47,42.77,110,57.2,80.22,20.31,89.91,20.14,35.29,6.35,43.29,8.33,18.28,5.23,18.28,5.23,21.05,14,23.26,13-.85-4-.41-5.19,2.61-.89,3.38-4.28,7-11.69,7-11.69l38.94,7.67s13.61,11.8,21.17,15,37.61,22.78,42,23.43,7.95.89,7.28.18-4.24-3.61-4.24-3.61,6.93,3.2,7.11,1.42.33-2.19-1.51-2.86-5.66-1.58-7.68-3a17.55,17.55,0,0,0-3.66-2s14,2.07,13.36,1.37c-1.67-1.76-4.55-2.11-5.44-2.2s-3.21-.7-3.21-.7l6.54-.87a34.59,34.59,0,0,0-1.08-3.39l-1.33-1.41s-2.94-.83-4-1.2l5.18-.9-1.33-7.17-1.42-3.75L571.46,313l-.35-8s7.78-8.73,9.62-13.84,4.27-8.61,5.22-10.58,4.32-8.13,4.32-8.13a17.74,17.74,0,0,0,1.33-3.68c.69-2.52.11-4.12-.36-4.75s.58-.95-2.78-1.24-12.81-1.63-12.81-1.63-8.81.74-15.11,2.85-33.48,6.36-36,7.05A24.86,24.86,0,0,1,518,272c-.89-.09-20.34-13.36-20.88-13.79s-.9-5.17-3-7.56-3.47-3.8-6.26-5-4.42-1.83-5.1-1.84-6-.77-6-.77l-90.42-55.8s11.28,4.54,8.18,2.27-9.41-5.26-11.72-6.55a75.39,75.39,0,0,1-6.28-4.35l7.82.75s11.52,3.24,7.1,1.41-10.26-4.17-13-5.41a49,49,0,0,0-6.88-2l-9-3.25-3.1-2.28a60.07,60.07,0,0,0,8.82,1.81c3.15.21,5.47.82,9,1.19l5.35.54a40.39,40.39,0,0,0-6.58-3.53,77.2,77.2,0,0,0-8.65-2.9l-7.72-1.63s-28.79-7.88-29.88-8-52.45-14.59-76.41-17.94-62-8.39-69.82-7.76-18.45,7.93-18.45,7.93Z" style="fill:#d6d6d6;stroke:#263238;stroke-linecap:round;stroke-linejoin:round"></path><path d="M144.54,197.06c4,5.56,14.27,12.5,28.21,22.13s62.47,42.77,110,57.2,80.22,20.31,89.91,20.14c9.07-.15,32.09,5.55,41.55,7.9-5.69-3.1-15.7-8.37-28.37-14.36-20.13-9.51-28.73-13.9-28.73-13.9l14.22,10.88s3,1.4-8-.68-38.81-5.43-69.79-16.64-47.65-26.79-67.09-37.33-26.28-10.14-29.3-10.6-9.7-2.23-13.78-5.94S162.07,205,156.25,202.58s8.39-5.57,8.39-5.57c-9-2.31-23.22-11.62-23.22-11.62A17.82,17.82,0,0,0,144.54,197.06Z" style="fill:#fff;stroke:#263238;stroke-linecap:round;stroke-linejoin:round"></path><path d="M183.52,129.48s-40.68,4.08-53.06,7.12-18,3.7-16.64,7.41,7.82,6.58,9.07,7.57,4.28,7.46,4.28,7.46l-13.77-5c-4.75-1.72-2.71,6,1.66,10.27s14.18,14.25,14.18,14.25,19.13,13.91,31.31,18.85,18.56,5.1,27.09-3.63,13.21-23.15,14.1-33S199.23,133.55,183.52,129.48Z" style="fill:#d6d6d6;stroke:#263238;stroke-linecap:round;stroke-linejoin:round"></path><ellipse cx="143.18" cy="146.98" rx="5.47" ry="4.96" transform="translate(-43.74 231.63) rotate(-70.12)" style="fill:#fff;stroke:#263238;stroke-linecap:round;stroke-linejoin:round"></ellipse><path d="M144.34,147.13c-.5,1.39-1.61,2.26-2.46,2s-1.15-1.69-.65-3.07,1.6-2.26,2.46-1.95S144.84,145.74,144.34,147.13Z" style="fill:#263238;stroke:#263238;stroke-linecap:round;stroke-linejoin:round"></path><path d="M127.17,159s6.72,17.72,9.59,18.76,5.48-.19,5.58-7.18-6.05-12.47-7.68-14.68" style="fill:none;stroke:#263238;stroke-linecap:round;stroke-linejoin:round"></path><path d="M184.4,201.43s15.88-.49,28.42,3.13,28.86,16,25.47,17.06a12.84,12.84,0,0,1-6.74.1l2.35,2.47-3.36-.29,4.92,3.62-10.36-3.28-4.66-.53,2.2,2.87s-6.91-1.34-8.54-1.93a39.9,39.9,0,0,1-7.8-4c-3.17-2.07-8.65-5.44-11.61-8.12a76.75,76.75,0,0,0-7.41-5.68l-1.56-.8" style="fill:#bababa;stroke:#263238;stroke-linecap:round;stroke-linejoin:round"></path><path d="M190.87,203.32s27.21,2.68,40.68,18.4" style="fill:none;stroke:#263238;stroke-linecap:round;stroke-linejoin:round"></path><path d="M195.37,207.48a74.54,74.54,0,0,1,35.17,16.42" style="fill:none;stroke:#263238;stroke-linecap:round;stroke-linejoin:round"></path><line x1="199.7" y1="210.2" x2="220.44" y2="223.71" style="fill:none;stroke:#263238;stroke-linecap:round;stroke-linejoin:round"></line><path d="M578.11,343.15c-1.84-.66-5.66-1.58-7.68-3a17.55,17.55,0,0,0-3.66-2s14,2.07,13.36,1.37c-1.67-1.76-4.55-2.11-5.44-2.2s-3.21-.7-3.21-.7l6.54-.87a34.59,34.59,0,0,0-1.08-3.39l-1.33-1.41s-2.94-.83-4-1.2l5.18-.9-1.33-7.17-1.42-3.75L571.46,313l-.35-8s7.78-8.73,9.62-13.84,4.27-8.61,5.22-10.58,4.32-8.13,4.32-8.13a17.74,17.74,0,0,0,1.33-3.68c.69-2.52.11-4.12-.36-4.75s.58-.95-2.78-1.24-12.81-1.63-12.81-1.63-8.81.74-15.11,2.85-33.48,6.36-36,7.05a27.67,27.67,0,0,1-5.29.85l4.22,2.27s21.27,2,22.66,10.43-5.49,22.22-12.42,26.4c-6.44,3.89-16.79,4.16-21.1,3.65,4.58,3.6,10.71,8.09,14.95,9.88,7.56,3.19,37.61,22.78,42,23.43s7.95.89,7.28.18-4.24-3.61-4.24-3.61,6.93,3.2,7.11,1.42S580,343.82,578.11,343.15Z" style="fill:#bababa;stroke:#263238;stroke-linecap:round;stroke-linejoin:round"></path><path d="M566.55,265.17a46.76,46.76,0,0,0-10.48,3.35" style="fill:none;stroke:#263238;stroke-linecap:round;stroke-linejoin:round"></path><path d="M591.24,264.08a91,91,0,0,0-20.7.4" style="fill:none;stroke:#263238;stroke-linecap:round;stroke-linejoin:round"></path><path d="M571.13,270.93a34.34,34.34,0,0,1,19.14,1.58" style="fill:none;stroke:#263238;stroke-linecap:round;stroke-linejoin:round"></path><path d="M554.14,277.38a51.84,51.84,0,0,1,14.1-5.82" style="fill:none;stroke:#263238;stroke-linecap:round;stroke-linejoin:round"></path><path d="M586,280.64s-12.43-1.35-16.63-.32" style="fill:none;stroke:#263238;stroke-linecap:round;stroke-linejoin:round"></path><path d="M582.14,275.72s-15,.94-22.77,4.82" style="fill:none;stroke:#263238;stroke-linecap:round;stroke-linejoin:round"></path><path d="M562.48,294.31c-2-.07-4.16-.09-6.49,0" style="fill:none;stroke:#263238;stroke-linecap:round;stroke-linejoin:round"></path><path d="M577.82,296.45a57,57,0,0,0-12-1.95" style="fill:none;stroke:#263238;stroke-linecap:round;stroke-linejoin:round"></path><path d="M552.68,308.7s13.81,2.95,18.78,4.34" style="fill:none;stroke:#263238;stroke-linecap:round;stroke-linejoin:round"></path><path d="M567.82,321.77c-5.36-1.93-13.48-4.75-21.16-7" style="fill:none;stroke:#263238;stroke-linecap:round;stroke-linejoin:round"></path><path d="M573.9,324l-2.56-1" style="fill:none;stroke:#263238;stroke-linecap:round;stroke-linejoin:round"></path><path d="M554.33,329.7a30.32,30.32,0,0,0,3.74,2" style="fill:none;stroke:#263238;stroke-linecap:round;stroke-linejoin:round"></path><path d="M540.93,320.06s5.63,4.57,11,8.11" style="fill:none;stroke:#263238;stroke-linecap:round;stroke-linejoin:round"></path><path d="M551.79,334.36a58,58,0,0,0,5.4,2.41" style="fill:none;stroke:#263238;stroke-linecap:round;stroke-linejoin:round"></path><path d="M531.64,320.2a97.28,97.28,0,0,0,16.77,12.34" style="fill:none;stroke:#263238;stroke-linecap:round;stroke-linejoin:round"></path><path d="M560.43,326a104.67,104.67,0,0,0,11.22,3.78" style="fill:none;stroke:#263238;stroke-linecap:round;stroke-linejoin:round"></path><path d="M553.19,322.27a18.62,18.62,0,0,0,2.55,1.53" style="fill:none;stroke:#263238;stroke-linecap:round;stroke-linejoin:round"></path><path d="M166.84,150.62c-.35,1-1.17,1.55-1.83,1.31s-.92-1.21-.57-2.18,1.17-1.55,1.83-1.31S167.19,149.66,166.84,150.62Z" style="fill:#263238;stroke:#263238;stroke-linecap:round;stroke-linejoin:round"></path><path d="M174.43,155.59c-.3.84-1,1.35-1.64,1.13a1.44,1.44,0,0,1-.54-1.92c.3-.85,1-1.35,1.64-1.13A1.44,1.44,0,0,1,174.43,155.59Z" style="fill:#263238;stroke:#263238;stroke-linecap:round;stroke-linejoin:round"></path><path d="M177.85,145.46a.88.88,0,0,1-1.08.6.87.87,0,0,1-.45-1.15.82.82,0,1,1,1.53.55Z" style="fill:#263238;stroke:#263238;stroke-linecap:round;stroke-linejoin:round"></path><path d="M175.66,140.6a.53.53,0,0,1-.64.38.53.53,0,0,1-.24-.7.54.54,0,0,1,.64-.39A.55.55,0,0,1,175.66,140.6Z" style="fill:#263238;stroke:#263238;stroke-linecap:round;stroke-linejoin:round"></path><path d="M183.18,141a1.29,1.29,0,1,1-.81-1.53A1.23,1.23,0,0,1,183.18,141Z" style="fill:#263238;stroke:#263238;stroke-linecap:round;stroke-linejoin:round"></path><path d="M185.24,151c-.33.9-1.09,1.46-1.69,1.24s-.82-1.13-.5-2,1.08-1.46,1.69-1.25S185.56,150.07,185.24,151Z" style="fill:#263238;stroke:#263238;stroke-linecap:round;stroke-linejoin:round"></path><path d="M186.56,159.61c-.33.9-.93,1.51-1.36,1.36s-.5-1-.17-1.92.94-1.51,1.36-1.36S186.89,158.7,186.56,159.61Z" style="fill:#263238;stroke:#263238;stroke-linecap:round;stroke-linejoin:round"></path><path d="M184.69,168.19c-.31.84-.9,1.41-1.32,1.25s-.51-1-.21-1.8.9-1.41,1.32-1.25S185,167.35,184.69,168.19Z" style="fill:#263238;stroke:#263238;stroke-linecap:round;stroke-linejoin:round"></path><path d="M153.23,160.27a1,1,0,1,1-.48-1.41A1.06,1.06,0,0,1,153.23,160.27Z" style="fill:#263238;stroke:#263238;stroke-linecap:round;stroke-linejoin:round"></path><path d="M160.09,157.69c-.15.42-.86.55-1.59.29s-1.18-.82-1-1.24.86-.55,1.59-.29S160.24,157.26,160.09,157.69Z" style="fill:#263238;stroke:#263238;stroke-linecap:round;stroke-linejoin:round"></path><path d="M144.7,159.28a1,1,0,0,1-1.23.67,1,1,0,0,1-.52-1.3.94.94,0,1,1,1.75.63Z" style="fill:#263238;stroke:#263238;stroke-linecap:round;stroke-linejoin:round"></path><path d="M282.41,155.52s-25.55,32.57-41.63,44.6" style="fill:none;stroke:#263238;stroke-linecap:round;stroke-linejoin:round"></path><path d="M288,161.12s-25.55,32.57-41.63,44.6" style="fill:none;stroke:#263238;stroke-linecap:round;stroke-linejoin:round"></path><path d="M293.65,166.72S268.1,199.29,252,211.32" style="fill:none;stroke:#263238;stroke-linecap:round;stroke-linejoin:round"></path><path d="M299.27,172.33s-25.55,32.56-41.62,44.59" style="fill:none;stroke:#263238;stroke-linecap:round;stroke-linejoin:round"></path><path d="M304.89,177.93s-25.55,32.56-41.62,44.59" style="fill:none;stroke:#263238;stroke-linecap:round;stroke-linejoin:round"></path><path d="M308.51,184.85S283,217.41,266.88,229.44" style="fill:none;stroke:#263238;stroke-linecap:round;stroke-linejoin:round"></path><path d="M312.12,191.76s-25.54,32.57-41.62,44.6" style="fill:none;stroke:#263238;stroke-linecap:round;stroke-linejoin:round"></path><path d="M273.11,157.26s28.63,25.14,36.82,43.39" style="fill:none;stroke:#263238;stroke-linecap:round;stroke-linejoin:round"></path><path d="M268.74,162.3s28.63,25.14,36.81,43.4" style="fill:none;stroke:#263238;stroke-linecap:round;stroke-linejoin:round"></path><path d="M264.36,167.35s28.63,25.14,36.82,43.39" style="fill:none;stroke:#263238;stroke-linecap:round;stroke-linejoin:round"></path><path d="M260,172.39s28.63,25.15,36.81,43.4" style="fill:none;stroke:#263238;stroke-linecap:round;stroke-linejoin:round"></path><path d="M255.61,177.44s28.64,25.14,36.82,43.4" style="fill:none;stroke:#263238;stroke-linecap:round;stroke-linejoin:round"></path><path d="M251.24,182.48s28.63,25.15,36.81,43.4" style="fill:none;stroke:#263238;stroke-linecap:round;stroke-linejoin:round"></path><path d="M246.86,187.53s28.64,25.14,36.82,43.4" style="fill:none;stroke:#263238;stroke-linecap:round;stroke-linejoin:round"></path><path d="M242.49,192.58s28.63,25.14,36.82,43.39" style="fill:none;stroke:#263238;stroke-linecap:round;stroke-linejoin:round"></path><path d="M181.5,64.69S151,97.13,146.36,100.56s-30.9,28.88-30.9,28.88l-6.35,10.49-4.46,35.89s39.58-41.08,44.29-47,36.15-5.68,43.27-6.51,65.4.64,65.4.64-3.78-10.74-3.38-16.56-2.29-19.58-8.32-21.77S181.5,64.69,181.5,64.69Z" style="fill:#fff;opacity:0.59"></path><path d="M128.46,246.66s105.34-34.35,110.88-33.2,161,9.66,161,9.66-62.21,23.53-72.48,28.34-44.27,16.37-44.27,16.37l-48.72,21.59-18.22-1.48L100.59,246Z" style="fill:#fff;opacity:0.59"></path><path d="M543.3,195.55s-33,20.47-36.87,24.17-92.31,40.77-92.31,40.77L533.45,244s44.21-13.84,51.61-15.43-16.6,24.68-16.6,24.68,15.33-4.68,30.26-3.54,22.53,1.33,24.17-3.19,5.24-16.86,3.8-19.94-11.18-9.16-11.18-9.16Z" style="fill:#fff;opacity:0.59"></path><path d="M466.56,172.06s-28.95,11.69-21.06,20.51,52.11-5,58-7.15S466.56,172.06,466.56,172.06Z" style="fill:#fff;opacity:0.59"></path><path d="M538,344.51s-70.61-5.09-79.57-1.51-76.42,3.89-79,3.83S551.33,409,551.33,409s10.41-.49,13.68-9.54,6.86-30.76,6.86-30.76S548.89,345,538,344.51Z" style="fill:#fff;opacity:0.59"></path></g><g id="freepik--Strawberries--inject-8"><path d="M573.41,284.85h-187a15,15,0,0,1-15-15l-10-112.62h237l-10,112.62A15,15,0,0,1,573.41,284.85Z" style="fill:#fff;stroke:#263238;stroke-linecap:round;stroke-linejoin:round"></path><path d="M551.41,195.16s-3.67-6.21-14.61-4.36-27.64,14-32.8,21.52c-7.87,11.49-.72,30.63,12.52,36.66s23.91-.83,29.58-8.78,9.76-24.92,9.61-32.32C555.51,198.62,551.41,195.16,551.41,195.16Z" style="fill:#92E3A9;stroke:#263238;stroke-linecap:round;stroke-linejoin:round"></path><path d="M534.68,195.8s-2.6,1.16-3,2.31.86,2.49,2.11,1S536.34,195.78,534.68,195.8Z" style="fill:#263238"></path><path d="M518.78,213.88s-2.6,1.15-3,2.31.87,2.48,2.11,1S520.45,213.86,518.78,213.88Z" style="fill:#263238"></path><path d="M507.9,223.61s-2.3,1.67-2.5,2.89,1.36,2.25,2.27.52S509.53,223.25,507.9,223.61Z" style="fill:#263238"></path><path d="M523.09,203.11s-2.6,1.15-3,2.31.86,2.48,2.11,1S524.75,203.09,523.09,203.11Z" style="fill:#263238"></path><path d="M509.45,214.43s-2.59,1.16-3,2.31.87,2.49,2.11,1S511.12,214.41,509.45,214.43Z" style="fill:#263238"></path><path d="M544.72,201.35s-2.13,1.89-2.2,3.12,1.57,2.11,2.3.3S546.3,200.83,544.72,201.35Z" style="fill:#263238"></path><path d="M538.4,213.9s-2.13,1.89-2.21,3.12,1.58,2.11,2.31.3S540,213.38,538.4,213.9Z" style="fill:#263238"></path><path d="M529.16,224.84S527,226.72,527,228s1.58,2.11,2.31.29S530.74,224.31,529.16,224.84Z" style="fill:#263238"></path><path d="M536.22,204s-2.45,1.44-2.76,2.64,1.14,2.37,2.2.73S537.87,203.79,536.22,204Z" style="fill:#263238"></path><path d="M529.08,213.59s-2.45,1.44-2.76,2.64,1.14,2.37,2.21.73S530.74,213.38,529.08,213.59Z" style="fill:#263238"></path><path d="M519.5,223.87s-2.45,1.45-2.76,2.64,1.14,2.38,2.21.73S521.15,223.66,519.5,223.87Z" style="fill:#263238"></path><path d="M514.07,233.41s-2.45,1.44-2.76,2.64,1.14,2.37,2.21.73S515.72,233.2,514.07,233.41Z" style="fill:#263238"></path><path d="M548.34,210.8s-2.2,1.8-2.32,3,1.49,2.17,2.29.39S549.94,210.34,548.34,210.8Z" style="fill:#263238"></path><path d="M540,223.76s-2.2,1.8-2.32,3,1.49,2.17,2.29.39S541.64,223.3,540,223.76Z" style="fill:#263238"></path><path d="M534,235.16s-2.2,1.8-2.32,3,1.49,2.17,2.29.39S535.58,234.7,534,235.16Z" style="fill:#263238"></path><path d="M548.93,221.21s-2.2,1.8-2.32,3,1.49,2.16,2.29.38S550.53,220.75,548.93,221.21Z" style="fill:#263238"></path><path d="M522.3,237.15s-2.2,1.8-2.32,3,1.49,2.17,2.29.39S523.9,236.69,522.3,237.15Z" style="fill:#263238"></path><path d="M544.93,233.76s-2.2,1.8-2.32,3,1.49,2.17,2.29.39S546.53,233.3,544.93,233.76Z" style="fill:#263238"></path><path d="M536.83,244.55s-2.78.58-3.46,1.61.32,2.62,1.86,1.4S538.47,244.88,536.83,244.55Z" style="fill:#263238"></path><path d="M526,244.61s-2.79.58-3.46,1.62.32,2.61,1.85,1.4S527.6,244.94,526,244.61Z" style="fill:#263238"></path><path d="M394.11,185.83s-7-1.57-13.18,7.67-8.71,29.72-6.74,38.65c3,13.6,21.86,21.47,35.31,15.94s15.75-18,13.83-27.58-11.5-24.17-17-29.11C399.43,185.2,394.11,185.83,394.11,185.83Z" style="fill:#92E3A9;stroke:#263238;stroke-linecap:round;stroke-linejoin:round"></path><path d="M383.13,198.47s-.93,2.69-.4,3.8,2.41,1.07,2.16-.87S384.25,197.24,383.13,198.47Z" style="fill:#263238"></path><path d="M385.44,222.44s-.93,2.68-.39,3.79,2.4,1.07,2.15-.87S386.56,221.2,385.44,222.44Z" style="fill:#263238"></path><path d="M385.1,237s-.36,2.82.4,3.8,2.57.55,1.93-1.3S386,235.59,385.1,237Z" style="fill:#263238"></path><path d="M380.53,211.93s-.93,2.68-.39,3.8,2.4,1.06,2.15-.88S381.65,210.7,380.53,211.93Z" style="fill:#263238"></path><path d="M379.47,229.62s-.94,2.68-.4,3.8,2.41,1.07,2.16-.87S380.59,228.39,379.47,229.62Z" style="fill:#263238"></path><path d="M394.05,195s-.08,2.84.77,3.74,2.61.29,1.79-1.48S394.75,193.43,394.05,195Z" style="fill:#263238"></path><path d="M398.88,208.14s-.08,2.84.77,3.74,2.61.3,1.79-1.48S399.58,206.63,398.88,208.14Z" style="fill:#263238"></path><path d="M400.53,222.36s-.08,2.84.77,3.74,2.62.3,1.79-1.48S401.23,220.85,400.53,222.36Z" style="fill:#263238"></path><path d="M390.17,203s-.63,2.77,0,3.82,2.51.79,2-1.11S391.14,201.61,390.17,203Z" style="fill:#263238"></path><path d="M392.28,214.72s-.62,2.78,0,3.82,2.51.79,2-1.11S393.26,213.38,392.28,214.72Z" style="fill:#263238"></path><path d="M393.23,228.75s-.63,2.77,0,3.82,2.51.79,2.05-1.11S394.2,227.4,393.23,228.75Z" style="fill:#263238"></path><path d="M396.47,239.23s-.63,2.77,0,3.82,2.52.79,2.05-1.11S397.44,237.88,396.47,239.23Z" style="fill:#263238"></path><path d="M403.42,198.77s-.2,2.83.62,3.76,2.6.4,1.85-1.4S404.17,197.28,403.42,198.77Z" style="fill:#263238"></path><path d="M407.19,213.69s-.19,2.83.63,3.76,2.6.4,1.84-1.4S408,212.2,407.19,213.69Z" style="fill:#263238"></path><path d="M411.37,225.9s-.2,2.84.62,3.77,2.6.4,1.85-1.41S412.12,224.42,411.37,225.9Z" style="fill:#263238"></path><path d="M411.42,205.46s-.2,2.84.62,3.77,2.6.4,1.85-1.41S412.17,204,411.42,205.46Z" style="fill:#263238"></path><path d="M404.83,235.79s-.19,2.83.62,3.77,2.6.39,1.85-1.41S405.59,234.3,404.83,235.79Z" style="fill:#263238"></path><path d="M417.83,217s-.19,2.83.63,3.77,2.6.39,1.85-1.41S418.59,215.47,417.83,217Z" style="fill:#263238"></path><path d="M420.16,230.24s-1.48,2.43-1.19,3.63,2.13,1.56,2.29-.39S421.52,229.28,420.16,230.24Z" style="fill:#263238"></path><path d="M412.78,238.22s-1.48,2.42-1.19,3.63,2.13,1.55,2.29-.4S414.13,237.25,412.78,238.22Z" style="fill:#263238"></path><path d="M429.88,221.91s-3.67-6.22-14.61-4.37-27.64,14-32.81,21.52c-7.86,11.49-.71,30.63,12.53,36.66s23.91-.83,29.58-8.78,9.76-24.92,9.61-32.32C434,225.36,429.88,221.91,429.88,221.91Z" style="fill:#92E3A9;stroke:#263238;stroke-linecap:round;stroke-linejoin:round"></path><path d="M413.15,222.54s-2.6,1.16-3,2.31.86,2.49,2.11,1S414.81,222.52,413.15,222.54Z" style="fill:#263238"></path><path d="M397.25,240.62s-2.6,1.16-3,2.31.86,2.49,2.11,1S398.92,240.6,397.25,240.62Z" style="fill:#263238"></path><path d="M386.37,250.35s-2.3,1.67-2.5,2.89,1.36,2.26,2.27.52S388,250,386.37,250.35Z" style="fill:#263238"></path><path d="M401.56,229.85s-2.6,1.16-3,2.31.86,2.49,2.1,1S403.22,229.83,401.56,229.85Z" style="fill:#263238"></path><path d="M387.92,241.18s-2.59,1.15-3,2.31.87,2.48,2.11,1S389.59,241.15,387.92,241.18Z" style="fill:#263238"></path><path d="M423.19,228.1s-2.13,1.88-2.2,3.12,1.57,2.11,2.3.29S424.77,227.57,423.19,228.1Z" style="fill:#263238"></path><path d="M416.87,240.65s-2.13,1.88-2.21,3.12,1.58,2.11,2.31.29S418.45,240.12,416.87,240.65Z" style="fill:#263238"></path><path d="M407.63,251.58s-2.13,1.88-2.21,3.12,1.58,2.11,2.31.29S409.21,251.06,407.63,251.58Z" style="fill:#263238"></path><path d="M414.69,230.74s-2.45,1.45-2.76,2.64,1.14,2.38,2.2.74S416.34,230.53,414.69,230.74Z" style="fill:#263238"></path><path d="M407.55,240.34s-2.45,1.44-2.76,2.64,1.14,2.37,2.21.73S409.21,240.13,407.55,240.34Z" style="fill:#263238"></path><path d="M398,250.62s-2.45,1.44-2.76,2.64,1.14,2.37,2.2.73S399.62,250.41,398,250.62Z" style="fill:#263238"></path><path d="M392.54,260.15s-2.45,1.44-2.76,2.64,1.14,2.37,2.21.73S394.19,259.94,392.54,260.15Z" style="fill:#263238"></path><path d="M426.81,237.54s-2.2,1.8-2.32,3,1.49,2.17,2.29.39S428.41,237.08,426.81,237.54Z" style="fill:#263238"></path><path d="M418.51,250.5s-2.2,1.8-2.32,3,1.49,2.17,2.29.38S420.11,250,418.51,250.5Z" style="fill:#263238"></path><path d="M412.45,261.9s-2.2,1.8-2.32,3,1.49,2.17,2.29.38S414.05,261.44,412.45,261.9Z" style="fill:#263238"></path><path d="M427.4,248s-2.2,1.8-2.33,3,1.5,2.17,2.3.38S429,247.5,427.4,248Z" style="fill:#263238"></path><path d="M400.77,263.9s-2.2,1.8-2.32,3,1.49,2.17,2.29.38S402.37,263.43,400.77,263.9Z" style="fill:#263238"></path><path d="M423.4,260.5s-2.2,1.8-2.32,3,1.49,2.17,2.29.38S425,260,423.4,260.5Z" style="fill:#263238"></path><path d="M415.3,271.29s-2.78.58-3.46,1.62.32,2.61,1.86,1.4S416.93,271.62,415.3,271.29Z" style="fill:#263238"></path><path d="M404.44,271.36s-2.79.58-3.46,1.61.32,2.62,1.85,1.4S406.07,271.69,404.44,271.36Z" style="fill:#263238"></path><path d="M416.93,193.48a12.73,12.73,0,0,0,5,.49,13.36,13.36,0,0,1,5.23.57s-.22-1.39-3.77-4.14-5-1.78-6.75-.68a11.34,11.34,0,0,1-3.45,1.45,5.3,5.3,0,0,0,.34-4,5.88,5.88,0,0,0-1.81-2.56,7.71,7.71,0,0,0-2.26,3,6.73,6.73,0,0,0-.88,4.06,16,16,0,0,0-3.47-1.68c-1-.14-2.63-.56-4.07.42a15.18,15.18,0,0,1-4.75,1.44s.7,2.1,1.09,3a4.86,4.86,0,0,0-4.1.57,15.24,15.24,0,0,0-3.78,3.25,4,4,0,0,1,2.93-.4,30,30,0,0,1,2.56,1.58,16.51,16.51,0,0,0,3,.48s11.13-4.52,14.23-4.53,5.73.1,5.86-.49S416.93,193.48,416.93,193.48Z" style="fill:#263238"></path><path d="M417.48,258s6.95,1.95,13.56-7,10.28-29.22,8.79-38.24c-2.28-13.73-20.69-22.59-34.42-17.78s-16.68,17.14-15.27,26.8,10.2,24.75,15.44,30C412.13,258.34,417.48,258,417.48,258Z" style="fill:#92E3A9;stroke:#263238;stroke-linecap:round;stroke-linejoin:round"></path><path d="M429.11,246s1.08-2.63.6-3.77-2.34-1.2-2.2.75S427.93,247.12,429.11,246Z" style="fill:#263238"></path><path d="M428.08,221.9s1.07-2.63.59-3.77-2.34-1.2-2.19.75S426.89,223.07,428.08,221.9Z" style="fill:#263238"></path><path d="M429.19,207.35s.51-2.8-.19-3.82-2.55-.68-2,1.2S428.27,208.74,429.19,207.35Z" style="fill:#263238"></path><path d="M432.42,232.66s1.08-2.64.6-3.78-2.35-1.19-2.2.76S431.24,233.82,432.42,232.66Z" style="fill:#263238"></path><path d="M434.42,215.05s1.08-2.64.6-3.78-2.35-1.19-2.2.76S433.24,216.21,434.42,215.05Z" style="fill:#263238"></path><path d="M418,248.9s.24-2.84-.57-3.78-2.59-.43-1.86,1.38S417.24,250.37,418,248.9Z" style="fill:#263238"></path><path d="M413.9,235.46s.23-2.83-.57-3.78-2.59-.43-1.87,1.39S413.12,236.93,413.9,235.46Z" style="fill:#263238"></path><path d="M413,221.18s.23-2.84-.57-3.78-2.59-.43-1.86,1.38S412.22,222.65,413,221.18Z" style="fill:#263238"></path><path d="M422.33,241.1s.77-2.74.16-3.82-2.46-.92-2.1,1S421.28,242.4,422.33,241.1Z" style="fill:#263238"></path><path d="M420.84,229.24s.77-2.74.16-3.82-2.46-.92-2.09,1S419.79,230.53,420.84,229.24Z" style="fill:#263238"></path><path d="M420.64,215.18s.77-2.73.17-3.81-2.47-.92-2.1,1S419.59,216.48,420.64,215.18Z" style="fill:#263238"></path><path d="M418,204.55s.77-2.74.16-3.82-2.46-.92-2.09,1S416.91,205.84,418,204.55Z" style="fill:#263238"></path><path d="M408.87,244.58s.34-2.82-.42-3.79-2.58-.54-1.92,1.31S408,246,408.87,244.58Z" style="fill:#263238"></path><path d="M405.89,229.48s.34-2.82-.42-3.79-2.58-.54-1.92,1.31S405.06,230.92,405.89,229.48Z" style="fill:#263238"></path><path d="M402.37,217.06s.35-2.82-.42-3.79-2.58-.54-1.92,1.31S401.54,218.5,402.37,217.06Z" style="fill:#263238"></path><path d="M401.24,237.47s.34-2.82-.42-3.79-2.58-.54-1.92,1.31S400.4,238.91,401.24,237.47Z" style="fill:#263238"></path><path d="M409.43,207.54s.34-2.82-.42-3.8-2.58-.53-1.93,1.31S408.59,209,409.43,207.54Z" style="fill:#263238"></path><path d="M395.44,225.65s.34-2.82-.42-3.79-2.58-.54-1.92,1.31S394.6,227.09,395.44,225.65Z" style="fill:#263238"></path><path d="M393.82,212.26s1.61-2.34,1.38-3.56-2-1.66-2.31.27S392.41,213.15,393.82,212.26Z" style="fill:#263238"></path><path d="M401.62,204.69s1.6-2.34,1.38-3.56-2.05-1.66-2.31.27S400.21,205.58,401.62,204.69Z" style="fill:#263238"></path><path d="M560.54,183.22a12.76,12.76,0,0,0,5,.49,13.36,13.36,0,0,1,5.23.57s-.21-1.38-3.77-4.14-5-1.78-6.74-.67a11.66,11.66,0,0,1-3.46,1.45,5.29,5.29,0,0,0,.35-4,5.84,5.84,0,0,0-1.82-2.57,7.64,7.64,0,0,0-2.25,3,6.63,6.63,0,0,0-.88,4.06,16.33,16.33,0,0,0-3.48-1.68c-1-.14-2.63-.55-4.07.42s-4.75,1.44-4.75,1.44.7,2.11,1.1,3a4.88,4.88,0,0,0-4.1.56,15.33,15.33,0,0,0-3.79,3.26,4,4,0,0,1,2.94-.4c1.28.52,1.82,1.27,2.56,1.57a16.68,16.68,0,0,0,3,.49s11.14-4.53,14.24-4.54,5.72.1,5.86-.49S560.54,183.22,560.54,183.22Z" style="fill:#263238"></path><path d="M561.09,247.74s6.95,1.94,13.57-7,10.28-29.22,8.78-38.25c-2.28-13.73-20.68-22.59-34.41-17.78s-16.69,17.15-15.27,26.8,10.2,24.75,15.43,30C555.74,248.08,561.09,247.74,561.09,247.74Z" style="fill:#92E3A9;stroke:#263238;stroke-linecap:round;stroke-linejoin:round"></path><path d="M572.73,235.69s1.07-2.63.6-3.77-2.35-1.19-2.2.76S571.54,236.86,572.73,235.69Z" style="fill:#263238"></path><path d="M571.69,211.64s1.08-2.63.6-3.77-2.35-1.19-2.2.76S570.5,212.81,571.69,211.64Z" style="fill:#263238"></path><path d="M572.8,197.09s.51-2.8-.19-3.81-2.54-.69-2,1.19S571.88,198.48,572.8,197.09Z" style="fill:#263238"></path><path d="M576,222.4s1.07-2.63.59-3.77-2.34-1.2-2.19.75S574.85,223.57,576,222.4Z" style="fill:#263238"></path><path d="M578,204.79s1.07-2.63.59-3.77-2.34-1.2-2.19.75S576.85,206,578,204.79Z" style="fill:#263238"></path><path d="M561.64,238.64s.23-2.84-.57-3.78-2.6-.43-1.87,1.38S560.86,240.11,561.64,238.64Z" style="fill:#263238"></path><path d="M557.51,225.2s.24-2.83-.56-3.77-2.6-.44-1.87,1.38S556.74,226.68,557.51,225.2Z" style="fill:#263238"></path><path d="M556.62,210.92s.23-2.84-.57-3.78-2.6-.43-1.87,1.38S555.84,212.39,556.62,210.92Z" style="fill:#263238"></path><path d="M565.94,230.84s.77-2.73.17-3.81-2.47-.93-2.1,1S564.89,232.14,565.94,230.84Z" style="fill:#263238"></path><path d="M564.45,219s.77-2.74.17-3.81-2.47-.93-2.1,1S563.41,220.28,564.45,219Z" style="fill:#263238"></path><path d="M564.25,204.93s.77-2.74.17-3.82-2.47-.92-2.1,1S563.21,206.22,564.25,204.93Z" style="fill:#263238"></path><path d="M561.57,194.29s.77-2.74.17-3.82-2.47-.92-2.1,1S560.53,195.59,561.57,194.29Z" style="fill:#263238"></path><path d="M552.49,234.33s.34-2.83-.42-3.8-2.58-.53-1.92,1.31S551.65,235.77,552.49,234.33Z" style="fill:#263238"></path><path d="M549.51,219.23s.34-2.83-.43-3.8-2.57-.53-1.92,1.31S548.67,220.67,549.51,219.23Z" style="fill:#263238"></path><path d="M546,206.81s.34-2.83-.42-3.8-2.58-.53-1.92,1.31S545.15,208.25,546,206.81Z" style="fill:#263238"></path><path d="M544.85,227.22s.35-2.83-.42-3.8-2.58-.53-1.92,1.31S544,228.66,544.85,227.22Z" style="fill:#263238"></path><path d="M553,197.28s.34-2.82-.42-3.79-2.58-.54-1.92,1.3S552.21,198.72,553,197.28Z" style="fill:#263238"></path><path d="M539.05,215.4s.35-2.83-.42-3.8-2.58-.53-1.92,1.31S538.22,216.84,539.05,215.4Z" style="fill:#263238"></path><path d="M537.43,202s1.61-2.34,1.38-3.56-2-1.66-2.31.28S536,202.9,537.43,202Z" style="fill:#263238"></path><path d="M545.23,194.43s1.61-2.34,1.38-3.56-2-1.66-2.31.28S543.83,195.33,545.23,194.43Z" style="fill:#263238"></path><path d="M462,195.72s-7-1.57-13.18,7.67-8.71,29.73-6.74,38.66c3,13.59,21.85,21.47,35.31,15.93s15.75-18,13.83-27.57-11.5-24.17-17-29.12C467.27,195.1,462,195.72,462,195.72Z" style="fill:#92E3A9;stroke:#263238;stroke-linecap:round;stroke-linejoin:round"></path><path d="M451,208.37s-.94,2.68-.4,3.8,2.41,1.06,2.16-.88S452.09,207.14,451,208.37Z" style="fill:#263238"></path><path d="M453.28,232.33s-.94,2.68-.4,3.8,2.41,1.07,2.16-.87S454.4,231.1,453.28,232.33Z" style="fill:#263238"></path><path d="M452.94,246.92s-.36,2.82.39,3.8,2.58.55,1.93-1.3S453.78,245.48,452.94,246.92Z" style="fill:#263238"></path><path d="M448.37,221.82s-.94,2.68-.4,3.8,2.41,1.07,2.16-.87S449.49,220.59,448.37,221.82Z" style="fill:#263238"></path><path d="M447.3,239.51s-.93,2.69-.39,3.8,2.41,1.07,2.15-.87S448.43,238.28,447.3,239.51Z" style="fill:#263238"></path><path d="M461.89,204.84s-.09,2.84.76,3.74,2.62.29,1.8-1.48S462.59,203.33,461.89,204.84Z" style="fill:#263238"></path><path d="M466.72,218s-.09,2.85.76,3.75,2.62.29,1.8-1.48S467.42,216.52,466.72,218Z" style="fill:#263238"></path><path d="M468.37,232.25s-.08,2.85.77,3.75,2.61.29,1.79-1.48S469.07,230.74,468.37,232.25Z" style="fill:#263238"></path><path d="M458,212.85s-.62,2.77,0,3.82,2.51.79,2-1.11S459,211.5,458,212.85Z" style="fill:#263238"></path><path d="M460.12,224.62s-.63,2.77,0,3.82,2.52.79,2.05-1.11S461.09,223.27,460.12,224.62Z" style="fill:#263238"></path><path d="M461.06,238.64s-.62,2.77,0,3.82,2.51.79,2-1.11S462,237.29,461.06,238.64Z" style="fill:#263238"></path><path d="M464.3,249.12s-.62,2.77,0,3.82,2.51.79,2-1.11S465.28,247.77,464.3,249.12Z" style="fill:#263238"></path><path d="M471.25,208.66s-.19,2.84.62,3.77,2.61.39,1.85-1.41S472,207.18,471.25,208.66Z" style="fill:#263238"></path><path d="M475,223.58s-.19,2.84.62,3.77,2.61.39,1.85-1.41S475.79,222.1,475,223.58Z" style="fill:#263238"></path><path d="M479.2,235.8s-.19,2.83.62,3.76,2.61.4,1.85-1.4S480,234.31,479.2,235.8Z" style="fill:#263238"></path><path d="M479.25,215.35s-.19,2.84.62,3.77,2.61.4,1.85-1.41S480,213.87,479.25,215.35Z" style="fill:#263238"></path><path d="M472.66,245.68s-.19,2.84.63,3.77,2.6.39,1.84-1.41S473.42,244.2,472.66,245.68Z" style="fill:#263238"></path><path d="M485.67,226.85s-.19,2.84.62,3.77,2.61.39,1.85-1.41S486.43,225.37,485.67,226.85Z" style="fill:#263238"></path><path d="M488,240.14s-1.48,2.43-1.19,3.63,2.13,1.55,2.29-.4S489.36,239.17,488,240.14Z" style="fill:#263238"></path><path d="M480.61,248.11s-1.48,2.43-1.18,3.63,2.12,1.55,2.29-.4S482,247.14,480.61,248.11Z" style="fill:#263238"></path><path d="M574.09,271.06a12.78,12.78,0,0,0-2.88,4.12,13.48,13.48,0,0,1-3.08,4.26s1.32.5,5.46-1.24,4-3.47,3.91-5.54a11.46,11.46,0,0,1,.44-3.72,5.3,5.3,0,0,0,3.33,2.28,5.89,5.89,0,0,0,3.12-.31,7.51,7.51,0,0,0-1.48-3.44,6.71,6.71,0,0,0-3.1-2.76,16,16,0,0,0,3.18-2.2c.6-.78,1.78-2,1.64-3.75s1.08-4.84,1.08-4.84-2.17-.43-3.19-.55a4.83,4.83,0,0,0,1.53-3.84,15.26,15.26,0,0,0-1-4.9,4,4,0,0,1-1.1,2.75,28.9,28.9,0,0,1-2.63,1.45,16.7,16.7,0,0,0-1.9,2.38s-1.55,11.92-3.06,14.63-2.9,4.93-2.46,5.33S574.09,271.06,574.09,271.06Z" style="fill:#263238"></path><path d="M517.67,239.78s-5.11,5.08-.62,15.23,20.37,23.33,29,26.47c13.07,4.78,29.85-6.87,32.43-21.19s-6.71-23-15.81-26.49-26.56-3.31-33.7-1.33C520,235,517.67,239.78,517.67,239.78Z" style="fill:#92E3A9;stroke:#263238;stroke-linecap:round;stroke-linejoin:round"></path><path d="M522.42,255.83s1.76,2.23,3,2.38,2.2-1.46.43-2.29S522,254.22,522.42,255.83Z" style="fill:#263238"></path><path d="M543.87,266.77s1.76,2.23,3,2.38,2.19-1.46.42-2.29S543.43,265.16,543.87,266.77Z" style="fill:#263238"></path><path d="M556,274.9s2.18,1.83,3.41,1.72,1.85-1.88,0-2.33S555.23,273.42,556,274.9Z" style="fill:#263238"></path><path d="M532.37,265.26s1.76,2.23,3,2.37,2.19-1.45.42-2.28S531.93,263.65,532.37,265.26Z" style="fill:#263238"></path><path d="M546.71,275.67s1.76,2.23,3,2.38,2.2-1.46.43-2.29S546.28,274.06,546.71,275.67Z" style="fill:#263238"></path><path d="M525.32,244.73s2.36,1.59,3.57,1.36,1.66-2-.28-2.3S524.43,243.32,525.32,244.73Z" style="fill:#263238"></path><path d="M539.05,247.75s2.35,1.6,3.56,1.37,1.66-2.05-.28-2.31S538.15,246.35,539.05,247.75Z" style="fill:#263238"></path><path d="M551.92,254s2.35,1.6,3.57,1.36,1.66-2-.28-2.3S551,252.6,551.92,254Z" style="fill:#263238"></path><path d="M530,252.31s2,2,3.24,2,2-1.7.16-2.32S529.38,250.76,530,252.31Z" style="fill:#263238"></path><path d="M541.05,256.86s2,2,3.24,2,2-1.69.16-2.32S540.43,255.31,541.05,256.86Z" style="fill:#263238"></path><path d="M553.38,263.6s2,2,3.24,2,2-1.7.16-2.32S552.76,262.06,553.38,263.6Z" style="fill:#263238"></path><path d="M564,266.51s2,2,3.24,2,2-1.69.17-2.32S563.34,265,564,266.51Z" style="fill:#263238"></path><path d="M533.58,238.89s2.29,1.68,3.51,1.5,1.74-2-.19-2.32S532.74,237.45,533.58,238.89Z" style="fill:#263238"></path><path d="M548.19,243.73s2.29,1.68,3.51,1.5,1.74-2-.19-2.32S547.35,242.29,548.19,243.73Z" style="fill:#263238"></path><path d="M560.74,246.78s2.28,1.69,3.51,1.51,1.73-2-.2-2.32S559.89,245.35,560.74,246.78Z" style="fill:#263238"></path><path d="M543.53,235.74s2.29,1.69,3.51,1.51,1.73-2-.19-2.32S542.69,234.31,543.53,235.74Z" style="fill:#263238"></path><path d="M565.55,257.61s2.29,1.69,3.51,1.5,1.74-2-.19-2.31S564.71,256.17,565.55,257.61Z" style="fill:#263238"></path><path d="M556.67,236.52s2.29,1.68,3.51,1.5,1.74-2-.19-2.32S555.83,235.08,556.67,236.52Z" style="fill:#263238"></path><path d="M569.13,241.7s1.25,2.55,2.42,3,2.45-1,.9-2.15S569,240,569.13,241.7Z" style="fill:#263238"></path><path d="M571.88,252.21s1.25,2.56,2.42,3,2.45-1,.89-2.15S571.79,250.55,571.88,252.21Z" style="fill:#263238"></path><path d="M437.68,220.84s-7.16.83-9.92,11.58,1.54,30.93,6.34,38.72c7.3,11.85,27.7,13.09,38.58,3.44s9-22.18,4-30.59-18.8-19.05-25.63-21.91C442.51,218.5,437.68,220.84,437.68,220.84Z" style="fill:#92E3A9;stroke:#263238;stroke-linecap:round;stroke-linejoin:round"></path><path d="M431.47,236.39s0,2.84.87,3.72,2.63.22,1.75-1.53S432.13,234.86,431.47,236.39Z" style="fill:#263238"></path><path d="M441.53,258.26s0,2.84.88,3.72,2.62.22,1.74-1.53S442.19,256.73,441.53,258.26Z" style="fill:#263238"></path><path d="M446,272.15s.58,2.78,1.62,3.46,2.61-.33,1.39-1.86S446.33,270.52,446,272.15Z" style="fill:#263238"></path><path d="M433.44,250s0,2.84.87,3.72,2.63.22,1.75-1.53S434.09,248.42,433.44,250Z" style="fill:#263238"></path><path d="M438.25,267s0,2.84.87,3.72,2.63.21,1.75-1.54S438.91,265.48,438.25,267Z" style="fill:#263238"></path><path d="M440.62,229.47s.86,2.71,2,3.28,2.57-.58,1.21-2S440.79,227.81,440.62,229.47Z" style="fill:#263238"></path><path d="M449.52,240.34s.86,2.72,2,3.29,2.57-.59,1.2-2S449.69,238.69,449.52,240.34Z" style="fill:#263238"></path><path d="M455.76,253.23s.86,2.71,1.95,3.28,2.57-.58,1.21-2S455.92,251.57,455.76,253.23Z" style="fill:#263238"></path><path d="M439.59,238.31s.32,2.83,1.29,3.6,2.63-.08,1.56-1.72S440.07,236.72,439.59,238.31Z" style="fill:#263238"></path><path d="M445.45,248.73s.33,2.82,1.29,3.59,2.64-.07,1.57-1.71S445.93,247.13,445.45,248.73Z" style="fill:#263238"></path><path d="M451,261.66s.32,2.83,1.29,3.6,2.63-.08,1.56-1.72S451.44,260.07,451,261.66Z" style="fill:#263238"></path><path d="M457.46,270.5s.32,2.82,1.29,3.59,2.64-.08,1.57-1.72S457.94,268.9,457.46,270.5Z" style="fill:#263238"></path><path d="M450.73,230s.75,2.74,1.82,3.35,2.59-.48,1.28-1.94S451,228.35,450.73,230Z" style="fill:#263238"></path><path d="M459.2,242.85s.75,2.74,1.82,3.35,2.59-.48,1.29-1.94S459.43,241.2,459.2,242.85Z" style="fill:#263238"></path><path d="M467.15,253s.75,2.75,1.83,3.36,2.59-.48,1.28-1.94S467.38,251.36,467.15,253Z" style="fill:#263238"></path><path d="M460.48,233.69s.75,2.74,1.83,3.36,2.59-.49,1.28-1.94S460.71,232,460.48,233.69Z" style="fill:#263238"></path><path d="M464.23,264.5s.75,2.74,1.82,3.35,2.59-.48,1.29-1.94S464.46,262.85,464.23,264.5Z" style="fill:#263238"></path><path d="M470.32,242.44s.75,2.74,1.83,3.35,2.59-.48,1.28-1.93S470.55,240.79,470.32,242.44Z" style="fill:#263238"></path><path d="M476.89,254.22s-.6,2.78.07,3.82,2.52.77,2-1.13S477.85,252.86,476.89,254.22Z" style="fill:#263238"></path><path d="M472.53,264.18s-.6,2.78.08,3.82,2.51.77,2-1.13S473.5,262.82,472.53,264.18Z" style="fill:#263238"></path><path d="M485.94,175.13s-7.17.82-9.93,11.57,1.55,30.94,6.34,38.72c7.31,11.85,27.7,13.09,38.59,3.45s8.95-22.19,4-30.59-18.8-19.05-25.63-21.91C490.76,172.78,485.94,175.13,485.94,175.13Z" style="fill:#92E3A9;stroke:#263238;stroke-linecap:round;stroke-linejoin:round"></path><path d="M479.72,190.67s0,2.85.88,3.72,2.62.22,1.75-1.53S480.38,189.14,479.72,190.67Z" style="fill:#263238"></path><path d="M489.78,212.54s0,2.85.88,3.72,2.62.22,1.75-1.53S490.44,211,489.78,212.54Z" style="fill:#263238"></path><path d="M494.26,226.44s.58,2.78,1.62,3.45,2.61-.32,1.4-1.85S494.59,224.8,494.26,226.44Z" style="fill:#263238"></path><path d="M481.69,204.23s0,2.85.88,3.72,2.62.22,1.75-1.53S482.35,202.7,481.69,204.23Z" style="fill:#263238"></path><path d="M486.5,221.29s0,2.84.88,3.72,2.62.22,1.75-1.53S487.16,219.76,486.5,221.29Z" style="fill:#263238"></path><path d="M488.88,183.75s.85,2.71,1.95,3.28,2.57-.58,1.21-2S489,182.09,488.88,183.75Z" style="fill:#263238"></path><path d="M497.78,194.63s.85,2.71,2,3.28,2.57-.58,1.21-2S497.94,193,497.78,194.63Z" style="fill:#263238"></path><path d="M504,207.51s.86,2.71,2,3.28,2.57-.58,1.2-2S504.18,205.86,504,207.51Z" style="fill:#263238"></path><path d="M487.84,192.6s.32,2.82,1.29,3.59,2.63-.08,1.57-1.72S488.32,191,487.84,192.6Z" style="fill:#263238"></path><path d="M493.71,203s.32,2.83,1.29,3.6,2.63-.08,1.56-1.72S494.19,201.42,493.71,203Z" style="fill:#263238"></path><path d="M499.21,216s.32,2.82,1.29,3.59,2.63-.08,1.56-1.72S499.69,214.35,499.21,216Z" style="fill:#263238"></path><path d="M505.72,224.78s.32,2.82,1.29,3.59,2.63-.07,1.56-1.71S506.19,223.18,505.72,224.78Z" style="fill:#263238"></path><path d="M499,184.28s.75,2.74,1.82,3.36,2.59-.49,1.29-1.94S499.21,182.63,499,184.28Z" style="fill:#263238"></path><path d="M507.45,197.13s.75,2.74,1.83,3.36,2.59-.49,1.28-1.94S507.68,195.48,507.45,197.13Z" style="fill:#263238"></path><path d="M515.41,207.3s.75,2.74,1.82,3.35,2.59-.48,1.29-1.94S515.63,205.65,515.41,207.3Z" style="fill:#263238"></path><path d="M508.73,188s.75,2.74,1.83,3.35,2.59-.48,1.28-1.94S509,186.33,508.73,188Z" style="fill:#263238"></path><path d="M512.48,218.78s.75,2.74,1.83,3.36,2.59-.49,1.28-1.94S512.71,217.13,512.48,218.78Z" style="fill:#263238"></path><path d="M518.58,196.72s.75,2.75,1.82,3.36,2.59-.48,1.28-1.94S518.8,195.07,518.58,196.72Z" style="fill:#263238"></path><path d="M525.14,208.51s-.6,2.78.07,3.81,2.52.77,2-1.12S526.11,207.15,525.14,208.51Z" style="fill:#263238"></path><path d="M520.79,218.46s-.6,2.78.07,3.82,2.52.77,2-1.13S521.75,217.1,520.79,218.46Z" style="fill:#263238"></path><path d="M527.13,238.25a12.77,12.77,0,0,0,2.32,4.46,13.34,13.34,0,0,1,2.38,4.69s1-.94,1.41-5.42-1.24-5.16-3.12-6a11.42,11.42,0,0,1-3.11-2.1,5.32,5.32,0,0,0,3.56-1.91,5.89,5.89,0,0,0,1.15-2.92,7.54,7.54,0,0,0-3.72-.26,6.69,6.69,0,0,0-3.89,1.48,15.87,15.87,0,0,0-.49-3.82c-.42-.9-1-2.51-2.57-3.19s-3.8-3.19-3.8-3.19-1.38,1.74-2,2.59a4.86,4.86,0,0,0-2.71-3.13,15.41,15.41,0,0,0-4.8-1.39,4,4,0,0,1,2,2.24c.26,1.36-.08,2.23.07,3a16.7,16.7,0,0,0,1.24,2.79s9.87,6.85,11.58,9.44,3,4.84,3.61,4.64S527.13,238.25,527.13,238.25Z" style="fill:#263238"></path><path d="M473.41,274s2.16,6.88,13.24,7.55,30.08-7.36,36.82-13.55c10.26-9.41,7.62-29.67-3.91-38.54s-23.48-4.59-30.8,1.87-15.14,22.07-16.66,29.31C470.19,269.69,473.41,274,473.41,274Z" style="fill:#92E3A9;stroke:#263238;stroke-linecap:round;stroke-linejoin:round"></path><path d="M489.85,277.14s2.79-.54,3.48-1.56-.28-2.62-1.83-1.43S488.22,276.78,489.85,277.14Z" style="fill:#263238"></path><path d="M509.42,263.12s2.79-.53,3.49-1.56-.28-2.62-1.84-1.43S507.79,262.77,509.42,263.12Z" style="fill:#263238"></path><path d="M522.22,256.1s2.62-1.1,3.08-2.25-.81-2.5-2.08-1S520.55,256.09,522.22,256.1Z" style="fill:#263238"></path><path d="M502.79,272.64s2.79-.54,3.49-1.56-.28-2.62-1.84-1.43S501.16,272.29,502.79,272.64Z" style="fill:#263238"></path><path d="M518.63,264.69s2.79-.54,3.49-1.56-.28-2.62-1.84-1.43S517,264.33,518.63,264.69Z" style="fill:#263238"></path><path d="M481.32,269.46s2.5-1.35,2.85-2.54-1.05-2.41-2.18-.81S479.66,269.61,481.32,269.46Z" style="fill:#263238"></path><path d="M490.32,258.66s2.5-1.35,2.85-2.54-1.06-2.41-2.18-.8S488.66,258.82,490.32,258.66Z" style="fill:#263238"></path><path d="M501.79,250.1s2.5-1.35,2.85-2.54-1.06-2.41-2.18-.81S500.13,250.25,501.79,250.1Z" style="fill:#263238"></path><path d="M490.2,268.8s2.71-.85,3.29-1.94-.58-2.57-2-1.22S488.54,268.63,490.2,268.8Z" style="fill:#263238"></path><path d="M499.32,261.07s2.71-.85,3.29-1.94-.58-2.57-2-1.22S497.66,260.9,499.32,261.07Z" style="fill:#263238"></path><path d="M511,253.22s2.71-.85,3.29-1.94-.58-2.57-2-1.22S509.32,253.05,511,253.22Z" style="fill:#263238"></path><path d="M518.42,245.16s2.72-.85,3.29-1.94-.58-2.57-2-1.21S516.77,245,518.42,245.16Z" style="fill:#263238"></path><path d="M479.93,259.44s2.55-1.26,2.95-2.43-1-2.45-2.15-.89S478.27,259.53,479.93,259.44Z" style="fill:#263238"></path><path d="M490.94,248.69s2.56-1.26,2.95-2.43-1-2.45-2.14-.89S489.28,248.78,490.94,248.69Z" style="fill:#263238"></path><path d="M499.42,239s2.55-1.25,2.95-2.42-1-2.45-2.14-.9S497.76,239,499.42,239Z" style="fill:#263238"></path><path d="M481.71,249.16s2.55-1.25,3-2.43-1-2.45-2.15-.89S480.05,249.25,481.71,249.16Z" style="fill:#263238"></path><path d="M511.25,239.66s2.55-1.26,3-2.43-1-2.45-2.14-.9S509.59,239.74,511.25,239.66Z" style="fill:#263238"></path><path d="M488.44,237.84s2.55-1.25,2.95-2.42-1-2.45-2.15-.9S486.78,237.93,488.44,237.84Z" style="fill:#263238"></path><path d="M498.77,229.17s2.84.06,3.73-.79.28-2.62-1.49-1.79S497.25,228.48,498.77,229.17Z" style="fill:#263238"></path><path d="M509.37,231.56s2.84.06,3.74-.79.27-2.62-1.5-1.79S507.85,230.87,509.37,231.56Z" style="fill:#263238"></path><path d="M602.28,153.13H356.38v9.37h36.79l6.68,14.2a52.45,52.45,0,0,0,47.46,30.11h57.52a52.45,52.45,0,0,0,47.46-30.11L559,162.5h43.31Z" style="fill:#263238;stroke:#263238;stroke-linecap:round;stroke-linejoin:round"></path><path d="M519,181.13H439.71a4.7,4.7,0,0,1-4.7-4.71h0a4.69,4.69,0,0,1,4.7-4.7H519a4.7,4.7,0,0,1,4.71,4.7h0A4.71,4.71,0,0,1,519,181.13Z" style="fill:none;stroke:#fff;stroke-linecap:round;stroke-linejoin:round"></path></g><g id="freepik--Shrimp--inject-8"><path d="M657,452.09H372.86A19.07,19.07,0,0,1,353.79,433L341.08,290H688.81L676.1,433A19.07,19.07,0,0,1,657,452.09Z" style="fill:#fff;stroke:#263238;stroke-linecap:round;stroke-linejoin:round"></path><path d="M432.88,384.14s-2.24-8.64-2.24-13.43,1.92-25.59,2.88-25.27,2.23,5.44,2.23,5.44l.83-6.85a2.43,2.43,0,0,1,3.65-1.79h0s2.24-13.11,4.8-7,3.84,24,4.48,28.14-.32-6.4,2.24.32.95,24.63.95,24.63S436.39,384.14,432.88,384.14Z" style="fill:#fff;stroke:#263238;stroke-linecap:round;stroke-linejoin:round"></path><path d="M402.25,388.94s-4.49-12.2-12.2-16.69-9.63,2.57-12.84,5.13-8.35,0-10.92,5.14-3.85,12.84-3.21,19.27a60,60,0,0,0,11.56,29.54c8.35,10.91,23.12,18.62,43.67,19.9s32.75-13.48,38.52-27,1.29-30.82-1.92-39.17-15.41-12.2-21.83-8.35-6.43,16.06-5.78,22.48,1.28,14.12,1.28,14.12-8.35-2.56-10.27-1.92a57.58,57.58,0,0,1-7.07,1.28S404.82,394.08,402.25,388.94Z" style="fill:#92E3A9;stroke:#263238;stroke-linecap:round;stroke-linejoin:round"></path><path d="M379.78,385.1c1.6-1.28,2.24-1,5.12-.32s5.12-1,6.72-1h3.52l3.51-1.92v-.29c-2.06-3.45-5-7.25-8.59-9.36-7.7-4.5-9.63,2.57-12.84,5.13s-8.35,0-10.92,5.14A36.26,36.26,0,0,0,363,396l.15,0s1.28-4.48,4.16-4.8,4.8,2.24,7.36-.64S378.19,386.38,379.78,385.1Z" style="fill:#fff;stroke:#263238;stroke-linecap:round;stroke-linejoin:round"></path><path d="M368,419a10.37,10.37,0,0,1,7.36-3.52h15c2.88,0,19.19-6.72,19.19-6.72s-9.6,5.44-14.39,7.36-9.92,2.24-13.12,3.52-11.19,5.76-11.19,5.76S367.31,421.88,368,419Z" style="fill:#fff;stroke:#263238;stroke-linecap:round;stroke-linejoin:round"></path><path d="M411.24,412.7a120.58,120.58,0,0,1-4.91,18.77c-3.2,8.64-7,16.31-7,16.31l-6.07-1.92s-.64-3.51.32-5.43,4.79-3.84,6.07-5.12,2.24-3.2,3.84-5.76S408.48,423.36,411.24,412.7Z" style="fill:#fff;stroke:#263238;stroke-linecap:round;stroke-linejoin:round"></path><path d="M428.58,413.34a100.06,100.06,0,0,1,5.57,18.77c1.92,10.24,1,15.67,1,15.67l-5.75,2.88s-1.92-.64-1.28-3.84,1.92-4.47,2.56-7a14.09,14.09,0,0,0,.64-5.12v-6.4C431.28,426.67,428.58,413.34,428.58,413.34Z" style="fill:#fff;stroke:#263238;stroke-linecap:round;stroke-linejoin:round"></path><path d="M428.4,405.57a36.89,36.89,0,0,1,12.15-1.92c5.76.32,13.75,3.52,16,6.07a14.81,14.81,0,0,1,2.88,4.48l-1.6,6.72s.32-1.92-3.52-4.48a24.84,24.84,0,0,1-6.39-6.72l-2.56-1.91S437,403.65,428.4,405.57Z" style="fill:#fff;stroke:#263238;stroke-linecap:round;stroke-linejoin:round"></path><path d="M534,399s4.2-7.87,7.45-11.4,18.73-17.53,19.22-16.65-2,5.52-2,5.52l5.25-4.48a2.42,2.42,0,0,1,3.89,1.16h0s10.52-8.14,8.29-1.94S562.7,391.51,560.36,395s4.09-4.92,1.43,1.75-16,18.78-16,18.78S536.63,401.43,534,399Z" style="fill:#92E3A9;stroke:#263238;stroke-linecap:round;stroke-linejoin:round"></path><path d="M508.25,381.85s5-12,2.32-20.55-8.83-4.63-12.93-4.91-6.14-5.65-11.51-3.61-11.53,6.85-15.4,12a59.89,59.89,0,0,0-11.49,29.56C458,408,463.65,423.71,477.9,438.57s33.24,12.24,46.62,6.23,21.81-21.82,25.1-30.14-3.09-19.41-10.42-20.92-15.6,7.47-19.47,12.63-8.62,11.26-8.62,11.26-4.4-7.54-6.26-8.37a57.6,57.6,0,0,1-6.07-3.83S506.66,387.37,508.25,381.85Z" style="fill:#92E3A9;stroke:#263238;stroke-linecap:round;stroke-linejoin:round"></path><path d="M494.32,363.81c2,.14,2.29.81,4,3.23s4.42,2.76,5.59,3.84l2.59,2.38,3.89,1,.19-.22c.81-3.94,1.25-8.71,0-12.71-2.63-8.52-8.83-4.63-12.93-4.91s-6.14-5.65-11.51-3.61a36.47,36.47,0,0,0-11.55,7.69l.14.09s4-2.43,6.3-.72,2,4.9,5.85,4.51S492.27,363.67,494.32,363.81Z" style="fill:#fff;stroke:#263238;stroke-linecap:round;stroke-linejoin:round"></path><path d="M462.66,380.75a10.33,10.33,0,0,1,7.79,2.4l11.07,10.17c2.12,1.95,18.67,8.05,18.67,8.05s-10.74-2.5-15.57-4.33-8.82-5.06-12-6.29-12.13-3.34-12.13-3.34S460.24,382.44,462.66,380.75Z" style="fill:#fff;stroke:#263238;stroke-linecap:round;stroke-linejoin:round"></path><path d="M498.78,405.43a122,122,0,0,1-16.32,10.49c-8.2,4.19-16.22,7.24-16.22,7.24l-3.17-5.53s1.91-3,3.92-3.78,6.12.42,7.93.34,3.82-.83,6.72-1.64S489.54,411.4,498.78,405.43Z" style="fill:#fff;stroke:#263238;stroke-linecap:round;stroke-linejoin:round"></path><path d="M511.11,417.63a99.92,99.92,0,0,1-8.6,17.59c-5.51,8.83-9.9,12.19-9.9,12.19l-6.19-1.78s-1-1.77,1.66-3.69,4.44-2,6.65-3.45a14.11,14.11,0,0,0,3.93-3.33l4.33-4.71C504.07,429.27,511.11,417.63,511.11,417.63Z" style="fill:#fff;stroke:#263238;stroke-linecap:round;stroke-linejoin:round"></path><path d="M516.24,411.79a36.93,36.93,0,0,1,10.25,6.81c4,4.13,7.74,11.9,7.65,15.3a14.68,14.68,0,0,1-.91,5.24L527.51,443s1.53-1.19.44-5.67a24.86,24.86,0,0,1-.16-9.28l-.59-3.14S523.9,416.22,516.24,411.79Z" style="fill:#fff;stroke:#263238;stroke-linecap:round;stroke-linejoin:round"></path><path d="M632.31,398.42s4.2-7.87,7.45-11.4,18.73-17.53,19.22-16.65-2,5.52-2,5.52l5.25-4.48a2.42,2.42,0,0,1,3.89,1.16h0s10.52-8.14,8.29-1.94S661,390.89,658.63,394.38s4.09-4.92,1.43,1.75-16,18.78-16,18.78S634.9,400.81,632.31,398.42Z" style="fill:#92E3A9;stroke:#263238;stroke-linecap:round;stroke-linejoin:round"></path><path d="M606.52,381.23s5-12,2.32-20.55-8.83-4.63-12.93-4.91-6.14-5.65-11.51-3.61-11.53,6.85-15.41,12a60,60,0,0,0-11.48,29.56c-1.25,13.69,4.4,29.36,18.66,44.22s33.23,12.24,46.62,6.23,21.81-21.82,25.1-30.14-3.09-19.41-10.42-20.92-15.6,7.47-19.47,12.63S609.38,417,609.38,417s-4.41-7.54-6.26-8.37a57.6,57.6,0,0,1-6.07-3.83S604.93,386.75,606.52,381.23Z" style="fill:#92E3A9;stroke:#263238;stroke-linecap:round;stroke-linejoin:round"></path><path d="M592.59,363.19c2,.14,2.29.81,4,3.23s4.41,2.76,5.59,3.84l2.59,2.38,3.89,1,.19-.22c.81-3.94,1.24-8.71,0-12.71-2.63-8.52-8.83-4.63-12.93-4.91s-6.14-5.65-11.51-3.61a36.36,36.36,0,0,0-11.55,7.69l.13.09s4-2.43,6.31-.72,2,4.9,5.85,4.51S590.54,363.05,592.59,363.19Z" style="fill:#fff;stroke:#263238;stroke-linecap:round;stroke-linejoin:round"></path><path d="M560.93,380.14a10.32,10.32,0,0,1,7.79,2.38l11.07,10.18c2.12,1.95,18.67,8.05,18.67,8.05s-10.75-2.5-15.58-4.33-8.81-5.06-12-6.29-12.13-3.34-12.13-3.34S558.51,381.82,560.93,380.14Z" style="fill:#fff;stroke:#263238;stroke-linecap:round;stroke-linejoin:round"></path><path d="M597.05,404.81a122,122,0,0,1-16.32,10.49c-8.2,4.19-16.22,7.24-16.22,7.24L561.34,417s1.91-3,3.91-3.78,6.13.42,7.94.34,3.81-.83,6.72-1.64S587.81,410.78,597.05,404.81Z" style="fill:#fff;stroke:#263238;stroke-linecap:round;stroke-linejoin:round"></path><path d="M609.38,417a100.77,100.77,0,0,1-8.6,17.59c-5.52,8.83-9.9,12.19-9.9,12.19L584.69,445s-1-1.77,1.66-3.69,4.44-2,6.64-3.45a14,14,0,0,0,3.94-3.33l4.33-4.71C602.34,428.65,609.38,417,609.38,417Z" style="fill:#fff;stroke:#263238;stroke-linecap:round;stroke-linejoin:round"></path><path d="M614.51,411.17A36.93,36.93,0,0,1,624.76,418c4,4.13,7.74,11.9,7.65,15.3a14.68,14.68,0,0,1-.91,5.24l-5.72,3.86s1.53-1.19.44-5.67a24.86,24.86,0,0,1-.16-9.28l-.59-3.14S622.17,415.6,614.51,411.17Z" style="fill:#fff;stroke:#263238;stroke-linecap:round;stroke-linejoin:round"></path><path d="M513.35,382.29s-7.91,4.14-12.58,5.23-25.35,3.94-25.26,2.93S480.3,387,480.3,387l-6.86.75a2.43,2.43,0,0,1-2.57-3.15h0s-13.28.8-7.94-3.08,22.49-9.18,26.39-10.75-6.15,1.77-.19-2.25S512.89,362,512.89,362,512.55,378.86,513.35,382.29Z" style="fill:#92E3A9;stroke:#263238;stroke-linecap:round;stroke-linejoin:round"></path><path d="M525,411s-10.86,7.15-13.49,15.67,4.69,8.8,7.92,11.35,1.9,8.13,7.48,9.46,13.38.84,19.49-1.25a59.89,59.89,0,0,0,26.14-18c8.74-10.61,12.89-26.74,9.48-47.05s-20.57-28.83-35-31.4-30.31,5.75-37.71,10.78-8.38,17.77-3.17,23.15,17.09,2.61,23.2.53,13.47-4.46,13.47-4.46-.61,8.71.45,10.44a58,58,0,0,1,2.86,6.59S529.4,407.35,525,411Z" style="fill:#92E3A9;stroke:#263238;stroke-linecap:round;stroke-linejoin:round"></path><path d="M526.34,433.77c-1.61-1.26-1.45-2-1.48-4.91s-2.09-4.76-2.46-6.32-.8-3.43-.8-3.43l-2.66-3-.29.08c-2.88,2.8-5.93,6.49-7.16,10.49-2.63,8.53,4.69,8.8,7.92,11.35s1.9,8.13,7.48,9.46a36.31,36.31,0,0,0,13.87.15l-.06-.15s-4.65-.23-5.61-3,1.09-5.18-2.3-7S528,435,526.34,433.77Z" style="fill:#fff;stroke:#263238;stroke-linecap:round;stroke-linejoin:round"></path><path d="M562,437.6a10.36,10.36,0,0,1-5.1-6.36c-1-4.36-2.76-11.84-3.41-14.64s-10.9-17.17-10.9-17.17,7.47,8.11,10.43,12.35,4.43,9.15,6.41,12,8.14,9.59,8.14,9.59S565,437.57,562,437.6Z" style="fill:#fff;stroke:#263238;stroke-linecap:round;stroke-linejoin:round"></path><path d="M546.08,396.87a121.45,121.45,0,0,1,19.39.52c9.14,1.16,17.48,3.15,17.48,3.15l-.49,6.35s-3.28,1.43-5.36.93-4.83-3.8-6.37-4.76-3.62-1.45-6.47-2.43S557.08,397.14,546.08,396.87Z" style="fill:#fff;stroke:#263238;stroke-linecap:round;stroke-linejoin:round"></path><path d="M542.77,379.84a99.78,99.78,0,0,1,17-9.69c9.53-4.19,15-4.49,15-4.49l4.11,4.95s-.19,2-3.45,2.12-4.79-.86-7.43-.9a14.14,14.14,0,0,0-5.13.54l-6.23,1.45C555.13,374.19,542.77,379.84,542.77,379.84Z" style="fill:#fff;stroke:#263238;stroke-linecap:round;stroke-linejoin:round"></path><path d="M535.23,381.78a37,37,0,0,1-4.63-11.4c-1-5.68.31-14.19,2.29-16.95a14.75,14.75,0,0,1,3.71-3.82l6.9,0s-1.94.13-3.56,4.44a24.8,24.8,0,0,1-5.09,7.76l-1.29,2.93S531.4,373.81,535.23,381.78Z" style="fill:#fff;stroke:#263238;stroke-linecap:round;stroke-linejoin:round"></path><path d="M598.36,332.32s-7.9,4.14-12.57,5.23-25.35,3.94-25.26,2.94,4.79-3.42,4.79-3.42l-6.86.75a2.42,2.42,0,0,1-2.57-3.15h0s-13.28.8-7.94-3.07,22.49-9.19,26.39-10.75-6.16,1.76-.2-2.26,23.77-6.52,23.77-6.52S597.56,328.9,598.36,332.32Z" style="fill:#fff;stroke:#263238;stroke-linecap:round;stroke-linejoin:round"></path><path d="M610,361.06s-10.86,7.14-13.49,15.67,4.69,8.8,7.92,11.34,1.89,8.13,7.48,9.47,13.38.83,19.49-1.25a60,60,0,0,0,26.14-18c8.74-10.61,12.89-26.74,9.47-47s-20.57-28.84-35-31.4-30.31,5.75-37.71,10.77-8.38,17.78-3.17,23.16,17.09,2.61,23.2.52,13.46-4.46,13.46-4.46-.6,8.72.46,10.45a57.46,57.46,0,0,1,2.85,6.59S614.42,357.39,610,361.06Z" style="fill:#92E3A9;stroke:#263238;stroke-linecap:round;stroke-linejoin:round"></path><path d="M611.35,383.81c-1.61-1.27-1.44-2-1.47-4.91s-2.1-4.77-2.46-6.32l-.8-3.43-2.67-3-.28.07c-2.88,2.8-5.93,6.5-7.16,10.5-2.63,8.52,4.69,8.8,7.92,11.34s1.89,8.13,7.48,9.47a36.72,36.72,0,0,0,13.87.15l-.06-.15s-4.65-.23-5.62-3,1.1-5.18-2.29-7S613,385.08,611.35,383.81Z" style="fill:#fff;stroke:#263238;stroke-linecap:round;stroke-linejoin:round"></path><path d="M647.06,387.64a10.39,10.39,0,0,1-5.1-6.37c-1-4.36-2.76-11.84-3.41-14.64s-10.9-17.16-10.9-17.16,7.47,8.11,10.43,12.34,4.43,9.15,6.4,12,8.15,9.59,8.15,9.59S650,387.6,647.06,387.64Z" style="fill:#fff;stroke:#263238;stroke-linecap:round;stroke-linejoin:round"></path><path d="M631.09,346.91a120.25,120.25,0,0,1,19.4.52c9.13,1.15,17.48,3.14,17.48,3.14l-.49,6.36s-3.28,1.42-5.36.92-4.83-3.8-6.37-4.75-3.62-1.46-6.48-2.43S642.1,347.18,631.09,346.91Z" style="fill:#fff;stroke:#263238;stroke-linecap:round;stroke-linejoin:round"></path><path d="M627.78,329.87a101.06,101.06,0,0,1,17-9.69c9.53-4.19,15.05-4.49,15.05-4.49l4.11,4.95s-.19,2-3.45,2.12-4.8-.85-7.43-.89a13.72,13.72,0,0,0-5.13.54l-6.23,1.45C640.15,324.22,627.78,329.87,627.78,329.87Z" style="fill:#fff;stroke:#263238;stroke-linecap:round;stroke-linejoin:round"></path><path d="M620.25,331.82a37,37,0,0,1-4.63-11.4c-1-5.68.3-14.19,2.29-17a14.83,14.83,0,0,1,3.7-3.82l6.91,0s-1.94.12-3.56,4.44a24.68,24.68,0,0,1-5.09,7.75l-1.29,2.93S616.42,323.84,620.25,331.82Z" style="fill:#fff;stroke:#263238;stroke-linecap:round;stroke-linejoin:round"></path><path d="M400.24,336.33s-7.9,4.14-12.57,5.23-25.36,3.94-25.26,2.94,4.78-3.42,4.78-3.42l-6.86.75a2.42,2.42,0,0,1-2.56-3.15h0s-13.28.8-7.94-3.07,22.48-9.19,26.39-10.75-6.16,1.76-.2-2.26,23.77-6.52,23.77-6.52S399.44,332.91,400.24,336.33Z" style="fill:#92E3A9;stroke:#263238;stroke-linecap:round;stroke-linejoin:round"></path><path d="M411.87,365.06s-10.86,7.15-13.49,15.68,4.69,8.79,7.92,11.34,1.9,8.13,7.49,9.46,13.38.84,19.49-1.24a60.13,60.13,0,0,0,26.14-18c8.73-10.61,12.89-26.74,9.47-47.05s-20.57-28.83-35-31.39-30.3,5.75-37.71,10.77-8.38,17.78-3.17,23.16,17.09,2.6,23.2.52,13.47-4.46,13.47-4.46-.61,8.72.46,10.45a57.52,57.52,0,0,1,2.85,6.58S416.29,361.4,411.87,365.06Z" style="fill:#92E3A9;stroke:#263238;stroke-linecap:round;stroke-linejoin:round"></path><path d="M413.23,387.82c-1.61-1.27-1.44-2-1.47-4.91s-2.1-4.77-2.46-6.33-.8-3.42-.8-3.42l-2.67-3-.28.07c-2.89,2.8-5.93,6.5-7.17,10.5-2.62,8.52,4.69,8.79,7.92,11.34s1.9,8.13,7.49,9.46a36.27,36.27,0,0,0,13.86.15l0-.15s-4.65-.22-5.62-3,1.09-5.18-2.29-7S414.84,389.08,413.23,387.82Z" style="fill:#fff;stroke:#263238;stroke-linecap:round;stroke-linejoin:round"></path><path d="M448.93,391.64a10.32,10.32,0,0,1-5.09-6.36c-1-4.36-2.76-11.84-3.42-14.64s-10.89-17.16-10.89-17.16S437,361.59,440,365.82s4.43,9.15,6.4,12,8.15,9.6,8.15,9.6S451.88,391.61,448.93,391.64Z" style="fill:#fff;stroke:#263238;stroke-linecap:round;stroke-linejoin:round"></path><path d="M433,350.91a121.57,121.57,0,0,1,19.4.52c9.13,1.16,17.48,3.15,17.48,3.15l-.49,6.36s-3.28,1.42-5.37.92-4.83-3.8-6.36-4.76-3.62-1.45-6.48-2.43S444,351.19,433,350.91Z" style="fill:#fff;stroke:#263238;stroke-linecap:round;stroke-linejoin:round"></path><path d="M429.66,333.88a100.27,100.27,0,0,1,17-9.69c9.53-4.19,15-4.49,15-4.49l4.11,4.95s-.18,2-3.44,2.12-4.8-.85-7.44-.9a14.11,14.11,0,0,0-5.12.54l-6.23,1.46C442,328.23,429.66,333.88,429.66,333.88Z" style="fill:#fff;stroke:#263238;stroke-linecap:round;stroke-linejoin:round"></path><path d="M422.13,335.83s-3.64-5.73-4.63-11.4.3-14.2,2.28-17a14.94,14.94,0,0,1,3.71-3.82l6.9,0s-1.94.13-3.56,4.45a24.68,24.68,0,0,1-5.09,7.75l-1.28,2.93S418.3,327.85,422.13,335.83Z" style="fill:#fff;stroke:#263238;stroke-linecap:round;stroke-linejoin:round"></path><path d="M693.69,284.83h-359v11.9h70.09l8.49,18A66.59,66.59,0,0,0,473.52,353h73a66.61,66.61,0,0,0,60.27-38.25l8.48-18h78.38Z" style="fill:#263238;stroke:#263238;stroke-linecap:round;stroke-linejoin:round"></path><rect x="457.9" y="308.43" width="112.57" height="11.95" rx="5.11" style="fill:none;stroke:#fff;stroke-linecap:round;stroke-linejoin:round"></rect></g></svg>
